<svg xmlns="http://www.w3.org/2000/svg" viewBox="0 0 482.36 351.42"><defs><style>.a{opacity:0.75;}.b{fill:#f2f2f2;}.c{fill:#231f20;}.d{fill:#bcbec0;}.e{fill:#a7a9ac;}.f,.g{fill:none;stroke:#231f20;stroke-width:0.75px;}.f{stroke-linejoin:round;}.g{stroke-miterlimit:10;}</style></defs><g class="a"><rect class="b" x="189.06" y="54.65" width="60.23" height="39.91" rx="3.94"/><path class="c" d="M245.35,55a3.57,3.57,0,0,1,3.56,3.56v32a3.57,3.57,0,0,1-3.56,3.57H193a3.57,3.57,0,0,1-3.57-3.57v-32A3.57,3.57,0,0,1,193,55h52.35m0-.75H193a4.31,4.31,0,0,0-4.32,4.31v32A4.32,4.32,0,0,0,193,94.94h52.35a4.32,4.32,0,0,0,4.31-4.32v-32a4.31,4.31,0,0,0-4.31-4.31Z"/></g><rect class="d" x="185.25" y="58.47" width="60.23" height="39.91" rx="3.94"/><path class="c" d="M241.54,58.84a3.57,3.57,0,0,1,3.56,3.56v32A3.57,3.57,0,0,1,241.54,98H189.19a3.57,3.57,0,0,1-3.57-3.57v-32a3.57,3.57,0,0,1,3.57-3.56h52.35m0-.75H189.19a4.31,4.31,0,0,0-4.32,4.31v32a4.32,4.32,0,0,0,4.32,4.32h52.35a4.32,4.32,0,0,0,4.31-4.32v-32a4.31,4.31,0,0,0-4.31-4.31Z"/><rect class="e" y="161.33" width="60.98" height="80.66" rx="4.31"/><path class="c" d="M56.67,161.33h-4v.75h4v-.75Zm-8,0h-4v.75h4v-.75Zm-8,0h-4v.75h4v-.75Zm-8,0h-4v.75h4v-.75Zm-8,0h-4v.75h4v-.75Zm-8,0h-4v.75h4v-.75Zm-8,0h-4v.75h4v-.75Zm-7.58,1.45H1l0,0H1l0,0H1l0,.05h0a4.29,4.29,0,0,0-.83,1.81h0v.05h0v0h0v0H0v0H0v.87H.75v-.87a3.54,3.54,0,0,1,.9-2.36l-.56-.5Zm-.34,7.73H0v4H.75v-4Zm0,8H0v4H.75v-4Zm0,8H0v4H.75v-4Zm0,8H0v4H.75v-4Zm0,8H0v4H.75v-4Zm0,8H0v4H.75v-4Zm0,8H0v4H.75v-4Zm0,8H0v4H.75v-4Zm0,8H0v3.16H0v0H0v0H0v0h0s0,.07,0,.1h0s0,.06,0,.09l.74-.15a3.17,3.17,0,0,1-.07-.69v-3.16Zm2,6.37-.33.68a4.38,4.38,0,0,0,1.18.37H6.38v-.75H4.31a3.41,3.41,0,0,1-1.54-.35Zm11.61.35h-4V242h4v-.75Zm8,0h-4V242h4v-.75Zm8,0h-4V242h4v-.75Zm8,0h-4V242h4v-.75Zm8,0h-4V242h4v-.75Zm8,0h-4V242h4v-.75Zm5.74-2.69A3.58,3.58,0,0,1,58,241l.29.69a4.32,4.32,0,0,0,2.52-2.93l-.73-.18Zm.86-7.81h-.75v4H61v-4Zm0-8h-.75v4H61v-4Zm0-8h-.75v4H61v-4Zm0-8h-.75v4H61v-4Zm0-8h-.75v4H61v-4Zm0-8h-.75v4H61v-4Zm0-8h-.75v4H61v-4Zm0-8h-.75v4H61v-4Zm0-8h-.75v4H61v-4Zm-4.31-5.4v.75a3.54,3.54,0,0,1,2.78,1.34L60,163c-.11-.14-.23-.26-.35-.39h-.26l0,0h0l0,0h0a4.35,4.35,0,0,0-1.46-.77H56.67Z"/><rect class="e" x="100.58" y="137.99" width="60.98" height="82.62" rx="4.31"/><path class="c" d="M157.24,138h-4v.75h4V138Zm-8,0h-4v.75h4V138Zm-8,0h-4v.75h4V138Zm-8,0h-4v.75h4V138Zm-8,0h-4v.75h4V138Zm-8,0h-4v.75h4V138Zm-8,0h-4v.75h4V138Zm-7.58,1.45h-.14l0,0h0v0h0l0,0h0v0h0l0,0h0l0,0h0l0,0h0v0h0l0,0h0l0,0h0l0,0h0v0h0l0,0h0l0,0h0v0h0v0h0v0h0v0h0v0h0v0h0v0h-.14v.87h.75v-.87a3.59,3.59,0,0,1,.89-2.36l-.56-.5Zm-.33,7.73h-.75v4h.75v-4Zm0,8h-.75v4h.75v-4Zm0,8h-.75v4h.75v-4Zm0,8h-.75v4h.75v-4Zm0,8h-.75v4h.75v-4Zm0,8h-.75v4h.75v-4Zm0,8h-.75v4h.75v-4Zm0,8h-.75v4h.75v-4Zm0,8h-.75v4h.75v-4Zm.76,7.33-.59.46a4.31,4.31,0,0,0,2.54,1.56h0l.12,0H105v-.75h-.1a3.54,3.54,0,0,1-2.8-1.35Zm10.9,1.35h-4v.75h4v-.75Zm8,0h-4v.75h4v-.75Zm8,0h-4v.75h4v-.75Zm8,0h-4v.75h4v-.75Zm8,0h-4v.75h4v-.75Zm8,0h-4v.75h4v-.75Zm7-1.26a3.58,3.58,0,0,1-2.73,1.26H157v.75h3.55l-.57-.48Zm1.59-7.27h-.75v4h.75v-4Zm0-8h-.75v4h.75v-4Zm0-8h-.75v4h.75v-4Zm0-8h-.75v4h.75v-4Zm0-8h-.75v4h.75v-4Zm0-8h-.75v4h.75v-4Zm0-8h-.75v4h.75v-4Zm0-8h-.75v4h.75v-4Zm0-8h-.75v4h.75v-4Zm-1-7.77L160,140a3.53,3.53,0,0,1,.82,2.27v1h.75v-1h0v0h-.11v0h0v0h0v0h0v0h0v0h0v0h0v0h0v0h0v0h0v0h0v0h0v0h0v0h0a4.5,4.5,0,0,0-.67-1.12Z"/><rect class="e" x="177.04" y="137.99" width="60.98" height="83.23" rx="4.31"/><path class="c" d="M233.7,138h-4v.75h4V138Zm-8,0h-4v.75h4V138Zm-8,0h-4v.75h4V138Zm-8,0h-4v.75h4V138Zm-8,0h-4v.75h4V138Zm-8,0h-4v.75h4V138Zm-8,0h-4v.75h4V138Zm-7.58,1.45H178l0,0h0l0,0h0v0h0v0h0l0,0h0l0,0h0v0h0l0,0h0l0,0h0l0,0h0l0,0h0v0h0l0,0h0v0h0v0h0v0h0v0h0v0h0v0h0v0h0v0H177v.87h.75v-.87a3.53,3.53,0,0,1,.89-2.36l-.56-.5Zm-.33,7.73H177v4h.75v-4Zm0,8H177v4h.75v-4Zm0,8H177v4h.75v-4Zm0,8H177v4h.75v-4Zm0,8H177v4h.75v-4Zm0,8H177v4h.75v-4Zm0,8H177v4h.75v-4Zm0,8H177v4h.75v-4Zm0,8H177v4h.75v-4Zm.48,7.52-.65.38.06.1h0v0h.2a4.34,4.34,0,0,0,1.27,1.14h1.68l.09-.74a3.57,3.57,0,0,1-2.66-1.75Zm10.57,1.77h-4v.75h4v-.75Zm8,0h-4v.75h4v-.75Zm8,0h-4v.75h4v-.75Zm8,0h-4v.75h4v-.75Zm8,0h-4v.75h4v-.75Zm8,0h-4v.75h4v-.75Zm7.23-.9a3.55,3.55,0,0,1-2.37.9h-.86v.75h3l0,0h0l0,0h0a4,4,0,0,0,.62-.46l-.5-.56Zm2-7h-.75v4H238v-4Zm0-8h-.75v4H238v-4Zm0-8h-.75v4H238v-4Zm0-8h-.75v4H238v-4Zm0-8h-.75v4H238v-4Zm0-8h-.75v4H238v-4Zm0-8h-.75v4H238v-4Zm0-8h-.75v4H238v-4Zm0-8h-.75v4H238v-4Zm-.36-8-.69.3a3.48,3.48,0,0,1,.3,1.42v2.24H238V142.3h0V142h0a4.27,4.27,0,0,0-.15-.71h-.07v0h-.06l0-.09Zm-4-2.59v.75a3.84,3.84,0,0,1,.83.09l.18-.73h-.24L234,138h-.29Z"/><rect class="e" x="253.53" y="137.99" width="60.98" height="81.83" rx="4.31"/><path class="c" d="M310.2,138h-4v.75h4V138Zm-8,0h-4v.75h4V138Zm-8,0h-4v.75h4V138Zm-8,0h-4v.75h4V138Zm-8,0h-4v.75h4V138Zm-8,0h-4v.75h4V138Zm-8,0h-4v.75h4V138Zm-7.58,1.45h-.1l0,0h0a4.21,4.21,0,0,0-.85,1.78h0l0,.07h0v.05h0v0h0v0h0v0h0v0h0v.87h.75v-.87a3.54,3.54,0,0,1,.9-2.36l-.56-.5Zm-.34,7.73h-.75v4h.75v-4Zm0,8h-.75v4h.75v-4Zm0,8h-.75v4h.75v-4Zm0,8h-.75v4h.75v-4Zm0,8h-.75v4h.75v-4Zm0,8h-.75v4h.75v-4Zm0,8h-.75v4h.75v-4Zm0,8h-.75v4h.75v-4Zm0,8h-.75v4h.75v-4Zm1.22,7-.5.56h0l0,0h0v0h3.63v-.75h-.9a3.54,3.54,0,0,1-2.34-.88Zm11.24.88h-4v.75h4v-.75Zm8,0h-4v.75h4v-.75Zm8,0h-4v.75h4v-.75Zm8,0h-4v.75h4v-.75Zm8,0h-4v.75h4v-.75Zm8,0h-4v.75h4v-.75Zm6.55-1.8a3.57,3.57,0,0,1-2.64,1.77l.09.75h2.46l0,0h0l.14-.14h0a4.72,4.72,0,0,0,.59-.8l-.66-.37Zm1.22-7.53h-.75v4h.75v-4Zm0-8h-.75v4h.75v-4Zm0-8h-.75v4h.75v-4Zm0-8h-.75v4h.75v-4Zm0-8h-.75v4h.75v-4Zm0-8h-.75v4h.75v-4Zm0-8h-.75v4h.75v-4Zm0-8h-.75v4h.75v-4Zm0-8h-.75v4h.75v-4Zm-2.2-7.19-.37.65a3.59,3.59,0,0,1,1.79,2.64l.74-.1a5,5,0,0,0-.2-.87h0v0h0v0h-.71l0,0h0l0,0h0l0,0h0v0h0l0,0h0a4.24,4.24,0,0,0-.94-.8h0l-.05,0h0l0,0h-.06Z"/><rect class="e" x="330.07" y="138.12" width="60.98" height="82.28" rx="4.31"/><path class="c" d="M386.73,138.12h-4v.75h4v-.75Zm-8,0h-4v.75h4v-.75Zm-8,0h-4v.75h4v-.75Zm-8,0h-4v.75h4v-.75Zm-8,0h-4v.75h4v-.75Zm-8,0h-4v.75h4v-.75Zm-8,0h-4v.75h4v-.75Zm-7.58,1.45a4.45,4.45,0,0,0-1,1.88h0v.06h0v.06h0v0h0v0h0v0h0v0h0v0h0v0h0v0h0v.87h.75v-.87a3.53,3.53,0,0,1,.89-2.36l-.56-.5Zm-.33,7.73h-.75v4h.75v-4Zm0,8h-.75v4h.75v-4Zm0,8h-.75v4h.75v-4Zm0,8h-.75v4h.75v-4Zm0,8h-.75v4h.75v-4Zm0,8h-.75v4h.75v-4Zm0,8h-.75v4h.75v-4Zm0,8h-.75v4h.75v-4Zm0,8h-.75v4h.75v-4Zm.94,7.2-.55.51.09.1h0l0,0h.34a4.26,4.26,0,0,0,1.82.86h1.32v-.75h-.44a3.59,3.59,0,0,1-2.62-1.15Zm11.06,1.15h-4v.75h4v-.75Zm8,0h-4v.75h4v-.75Zm8,0h-4v.75h4v-.75Zm8,0h-4v.75h4v-.75Zm8,0h-4v.75h4v-.75Zm8,0h-4v.75h4v-.75Zm6.81-1.49a3.56,3.56,0,0,1-2.82,1.49v.75a4.39,4.39,0,0,0,1.81-.44h1.24a5.07,5.07,0,0,0,.37-.44l-.61-.44Zm1.42-7.39h-.75v4h.75v-4Zm0-8h-.75v4h.75v-4Zm0-8h-.75v4h.75v-4Zm0-8h-.75v4h.75v-4Zm0-8h-.75v4h.75v-4Zm0-8h-.75v4h.75v-4Zm0-8h-.75v4h.75v-4Zm0-8h-.75v4h.75v-4Zm0-8h-.75v4h.75v-4Zm-1.47-7.58-.49.57a3.58,3.58,0,0,1,1.21,2.67v.34h.75v-.34h0v0h0v0h0v0h0v0h0v0h0v0h0v0h0s0-.05,0-.07h0v0h0a.29.29,0,0,0,0-.09h0l0-.13h0l0-.08h0a.24.24,0,0,1,0-.08h0l0,0h0v0h0l0,0h0v0h0l0,0h0v0h0l0,0h0v0h0v0h-.31v0h0a4.37,4.37,0,0,0-.75-.86Z"/><path class="c" d="M105,165.46V168h2.9v-2.51h.78v6h-.78v-2.81H105v2.81h-.77v-6Z"/><path class="c" d="M111.32,171.46l-1.95-6h.83l.94,2.95c.25.81.48,1.54.64,2.25h0c.17-.7.42-1.45.69-2.24l1-3h.83l-2.14,6Z"/><path class="c" d="M115.43,169.57l-.62,1.89H114l2-6H117l2,6h-.82l-.64-1.89Zm2-.6-.59-1.73c-.13-.39-.22-.75-.31-1.09h0c-.09.35-.19.72-.3,1.08l-.59,1.74Z"/><path class="c" d="M124,171.26a3.82,3.82,0,0,1-1.58.29,2.81,2.81,0,0,1-3-3,3,3,0,0,1,3.14-3.15,3.18,3.18,0,0,1,1.42.27l-.19.63a2.84,2.84,0,0,0-1.21-.25,2.24,2.24,0,0,0-2.34,2.48,2.19,2.19,0,0,0,2.31,2.41,3.1,3.1,0,0,0,1.26-.25Z"/><path class="c" d="M126.68,170.66a2.06,2.06,0,0,0,1,.31c.57,0,.84-.29.84-.64s-.22-.58-.8-.79c-.78-.28-1.14-.71-1.14-1.22a1.33,1.33,0,0,1,1.48-1.27,2.17,2.17,0,0,1,1.06.27l-.19.57a1.65,1.65,0,0,0-.88-.25c-.47,0-.72.27-.72.59s.25.51.81.73c.75.28,1.13.66,1.13,1.3s-.58,1.29-1.61,1.29a2.46,2.46,0,0,1-1.21-.3Z"/><path class="c" d="M130.74,169.45a1.38,1.38,0,0,0,1.48,1.49,2.89,2.89,0,0,0,1.19-.22l.14.56a3.6,3.6,0,0,1-1.44.27,2,2,0,0,1-2.11-2.17,2.09,2.09,0,0,1,2-2.33,1.83,1.83,0,0,1,1.78,2,2.73,2.73,0,0,1,0,.37Zm2.3-.56a1.12,1.12,0,0,0-1.09-1.28,1.3,1.3,0,0,0-1.2,1.28Z"/><path class="c" d="M135.71,165.91v1.24h1.12v.6h-1.12v2.32c0,.53.15.83.58.83a1.67,1.67,0,0,0,.46-.05l0,.59a1.94,1.94,0,0,1-.69.11,1.11,1.11,0,0,1-.85-.33,1.61,1.61,0,0,1-.3-1.12v-2.35h-.67v-.6h.67v-1Z"/><path class="c" d="M138.65,165.91v1.24h1.12v.6h-1.12v2.32c0,.53.15.83.59.83a1.64,1.64,0,0,0,.45-.05l0,.59a2,2,0,0,1-.7.11,1.08,1.08,0,0,1-.84-.33,1.56,1.56,0,0,1-.31-1.12v-2.35h-.66v-.6h.66v-1Z"/><path class="c" d="M141.52,165.94a.49.49,0,0,1-1,0,.48.48,0,0,1,.49-.49A.47.47,0,0,1,141.52,165.94Zm-.87,5.52v-4.31h.78v4.31Z"/><path class="c" d="M142.73,168.32c0-.45,0-.81,0-1.17h.69l0,.71h0a1.57,1.57,0,0,1,1.42-.81c.6,0,1.53.36,1.53,1.84v2.57h-.79V169c0-.69-.26-1.27-1-1.27a1.11,1.11,0,0,0-1.05.8,1,1,0,0,0-.06.37v2.59h-.78Z"/><path class="c" d="M151.38,167.15c0,.31,0,.66,0,1.18v2.5a2.51,2.51,0,0,1-.61,2,2.31,2.31,0,0,1-1.57.52,2.76,2.76,0,0,1-1.43-.36l.19-.6a2.43,2.43,0,0,0,1.27.34c.8,0,1.38-.42,1.38-1.5v-.48h0a1.55,1.55,0,0,1-1.37.72,1.93,1.93,0,0,1-1.84-2.1,2.07,2.07,0,0,1,1.94-2.29,1.44,1.44,0,0,1,1.35.75h0l0-.65Zm-.81,1.7a1,1,0,0,0,0-.36,1.12,1.12,0,0,0-1.09-.82c-.75,0-1.28.63-1.28,1.63,0,.84.42,1.54,1.27,1.54a1.14,1.14,0,0,0,1.08-.8,1.2,1.2,0,0,0,.07-.42Z"/><path class="c" d="M152.53,170.66a2.06,2.06,0,0,0,1,.31c.57,0,.84-.29.84-.64s-.22-.58-.8-.79c-.78-.28-1.14-.71-1.14-1.22a1.33,1.33,0,0,1,1.48-1.27,2.17,2.17,0,0,1,1.06.27l-.19.57a1.65,1.65,0,0,0-.88-.25c-.47,0-.72.27-.72.59s.25.51.81.73c.75.28,1.13.66,1.13,1.3s-.58,1.29-1.61,1.29a2.46,2.46,0,0,1-1.21-.3Z"/><path class="c" d="M108.4,181.93a3.92,3.92,0,0,1-1.59.29,2.8,2.8,0,0,1-3-3A3,3,0,0,1,107,176a3.2,3.2,0,0,1,1.43.27l-.19.63a2.84,2.84,0,0,0-1.21-.25,2.23,2.23,0,0,0-2.34,2.48,2.18,2.18,0,0,0,2.3,2.41,3.12,3.12,0,0,0,1.27-.25Z"/><path class="c" d="M114.3,179.07c0,2.06-1.25,3.16-2.78,3.16a2.75,2.75,0,0,1-2.7-3,2.86,2.86,0,0,1,2.79-3.15A2.74,2.74,0,0,1,114.3,179.07Zm-4.65.1c0,1.28.69,2.42,1.91,2.42s1.92-1.13,1.92-2.49c0-1.19-.62-2.43-1.91-2.43S109.65,177.85,109.65,179.17Z"/><path class="c" d="M115.31,176.2a9.24,9.24,0,0,1,1.48-.11,2.44,2.44,0,0,1,1.68.5,1.6,1.6,0,0,1,.53,1.25,1.77,1.77,0,0,1-.46,1.28,2.48,2.48,0,0,1-1.84.66,2.94,2.94,0,0,1-.62-.05v2.4h-.77Zm.77,2.89a2.31,2.31,0,0,0,.64.07c.93,0,1.5-.46,1.5-1.28s-.56-1.18-1.41-1.18a3.64,3.64,0,0,0-.73.06Z"/><path class="c" d="M181.38,165.46v6h-.77v-6Z"/><path class="c" d="M182.79,168.32c0-.45,0-.81,0-1.17h.69l.05.71h0a1.6,1.6,0,0,1,1.43-.81c.59,0,1.52.36,1.52,1.84v2.57h-.78V169c0-.69-.26-1.27-1-1.27a1.11,1.11,0,0,0-1.05.8,1,1,0,0,0,0,.37v2.59h-.79Z"/><path class="c" d="M187.81,171.46v-3.71h-.61v-.6h.61v-.23a1.73,1.73,0,0,1,1.88-1.88,2.13,2.13,0,0,1,1.09.29l-.22.59a1.7,1.7,0,0,0-.91-.25c-.83,0-1.07.58-1.07,1.27v.21h2.5v4.31h-.77v-3.71h-1.73v3.71Z"/><path class="c" d="M192.38,165.14h.78v6.32h-.78Z"/><path class="c" d="M195.42,165.91v1.24h1.12v.6h-1.12v2.32c0,.53.15.83.59.83a1.59,1.59,0,0,0,.45-.05l0,.59a2,2,0,0,1-.7.11,1.1,1.1,0,0,1-.84-.33,1.61,1.61,0,0,1-.3-1.12v-2.35H194v-.6h.67v-1Z"/><path class="c" d="M197.42,168.49c0-.5,0-.94,0-1.34h.68l0,.85h0a1.31,1.31,0,0,1,1.2-.95.78.78,0,0,1,.22,0v.74a1.06,1.06,0,0,0-.27,0,1.1,1.1,0,0,0-1.05,1,1.94,1.94,0,0,0,0,.36v2.3h-.78Z"/><path class="c" d="M202.67,171.46l-.06-.55h0a1.59,1.59,0,0,1-1.31.64,1.22,1.22,0,0,1-1.32-1.23c0-1,.92-1.61,2.59-1.6v-.09a.89.89,0,0,0-1-1,2.19,2.19,0,0,0-1.12.32l-.18-.51a2.6,2.6,0,0,1,1.41-.39c1.32,0,1.64.9,1.64,1.76v1.61a6.54,6.54,0,0,0,.07,1Zm-.11-2.2c-.86,0-1.83.13-1.83,1a.69.69,0,0,0,.74.75,1.07,1.07,0,0,0,1-.72.74.74,0,0,0,.05-.25Z"/><path class="c" d="M205.48,165.91v1.24h1.12v.6h-1.12v2.32c0,.53.15.83.59.83a1.64,1.64,0,0,0,.45-.05l0,.59a2,2,0,0,1-.7.11,1.08,1.08,0,0,1-.84-.33,1.56,1.56,0,0,1-.31-1.12v-2.35h-.66v-.6h.66v-1Z"/><path class="c" d="M208.35,165.94a.49.49,0,0,1-1,0,.48.48,0,0,1,.49-.49A.47.47,0,0,1,208.35,165.94Zm-.87,5.52v-4.31h.78v4.31Z"/><path class="c" d="M213.46,169.27a2.1,2.1,0,0,1-2.15,2.28,2,2,0,0,1-2.06-2.21,2.1,2.1,0,0,1,2.13-2.29A2,2,0,0,1,213.46,169.27Zm-3.42,0c0,.95.54,1.66,1.31,1.66s1.31-.71,1.31-1.67c0-.73-.37-1.66-1.29-1.66S210,168.49,210,169.31Z"/><path class="c" d="M214.44,168.32c0-.45,0-.81,0-1.17h.69l.05.71h0a1.6,1.6,0,0,1,1.43-.81c.59,0,1.52.36,1.52,1.84v2.57h-.78V169c0-.69-.26-1.27-1-1.27a1.11,1.11,0,0,0-1.05.8,1,1,0,0,0-.05.37v2.59h-.79Z"/><path class="c" d="M180.61,182.13v-6h.84l1.92,3a17.08,17.08,0,0,1,1.08,1.94h0c-.07-.81-.09-1.54-.09-2.47v-2.51h.73v6h-.78l-1.91-3a18.57,18.57,0,0,1-1.12-2h0c0,.76.07,1.48.07,2.48v2.56Z"/><path class="c" d="M188.82,182.13l-.07-.54h0a1.64,1.64,0,0,1-1.32.64,1.23,1.23,0,0,1-1.32-1.24c0-1,.93-1.61,2.59-1.6v-.09a.89.89,0,0,0-1-1,2.22,2.22,0,0,0-1.12.32l-.17-.51a2.66,2.66,0,0,1,1.41-.39c1.32,0,1.64.9,1.64,1.77v1.61a5.5,5.5,0,0,0,.07,1Zm-.12-2.2c-.85,0-1.82.13-1.82,1a.69.69,0,0,0,.74.75,1,1,0,0,0,1.08-1Z"/><path class="c" d="M191.63,176.59v1.23h1.12v.6h-1.12v2.32c0,.53.15.84.58.84a1.59,1.59,0,0,0,.46-.06l0,.59a1.94,1.94,0,0,1-.69.11,1.11,1.11,0,0,1-.85-.33,1.61,1.61,0,0,1-.3-1.12v-2.35h-.67v-.6h.67v-1Z"/><path class="c" d="M197.23,181c0,.45,0,.84,0,1.18h-.69l0-.7h0a1.65,1.65,0,0,1-1.43.8c-.67,0-1.48-.38-1.48-1.89v-2.52h.78v2.39c0,.82.25,1.37,1,1.37a1.12,1.12,0,0,0,1-.72,1,1,0,0,0,.08-.4v-2.64h.78Z"/><path class="c" d="M198.53,179.17c0-.51,0-.95,0-1.35h.69l0,.85h0a1.29,1.29,0,0,1,1.19-.95.73.73,0,0,1,.22,0v.74a1,1,0,0,0-.26,0,1.09,1.09,0,0,0-1,1,1.88,1.88,0,0,0,0,.36v2.3h-.77Z"/><path class="c" d="M203.77,182.13l-.06-.54h0a1.62,1.62,0,0,1-1.31.64,1.23,1.23,0,0,1-1.32-1.24c0-1,.93-1.61,2.59-1.6v-.09a.89.89,0,0,0-1-1,2.19,2.19,0,0,0-1.12.32l-.18-.51a2.7,2.7,0,0,1,1.42-.39c1.31,0,1.63.9,1.63,1.77v1.61a5.45,5.45,0,0,0,.08,1Zm-.11-2.2c-.86,0-1.83.13-1.83,1a.69.69,0,0,0,.74.75,1.07,1.07,0,0,0,1-.72.74.74,0,0,0,0-.25Z"/><path class="c" d="M205.68,175.81h.78v6.32h-.78Z"/><path class="c" d="M181.92,192.8l-1.95-6h.83l.94,3c.25.81.48,1.54.64,2.24h0c.17-.7.42-1.45.69-2.23l1-3h.83l-2.14,6Z"/><path class="c" d="M185.68,190.79a1.38,1.38,0,0,0,1.48,1.49,2.73,2.73,0,0,0,1.19-.22l.14.56a3.43,3.43,0,0,1-1.44.27,2,2,0,0,1-2.11-2.17,2.09,2.09,0,0,1,2-2.32,1.82,1.82,0,0,1,1.78,2,2.73,2.73,0,0,1,0,.37Zm2.3-.56a1.11,1.11,0,0,0-1.09-1.27,1.3,1.3,0,0,0-1.2,1.27Z"/><path class="c" d="M189.7,189.66c0-.45,0-.81,0-1.17h.69l0,.72h0a1.6,1.6,0,0,1,1.43-.81c.59,0,1.52.35,1.52,1.83v2.57h-.78v-2.48c0-.7-.26-1.27-1-1.27a1.1,1.1,0,0,0-1.05.8,1,1,0,0,0,0,.36v2.59h-.79Z"/><path class="c" d="M195.55,187.26v1.23h1.12v.6h-1.12v2.32c0,.54.15.84.58.84a1.59,1.59,0,0,0,.46-.06l0,.59a1.94,1.94,0,0,1-.69.11,1.11,1.11,0,0,1-.85-.33,1.6,1.6,0,0,1-.3-1.12v-2.35h-.67v-.6h.67v-1Z"/><path class="c" d="M198.42,187.28a.49.49,0,0,1-1,0,.48.48,0,0,1,.49-.49A.47.47,0,0,1,198.42,187.28Zm-.87,5.52v-4.31h.78v4.31Z"/><path class="c" d="M199.63,186.48h.78v6.32h-.78Z"/><path class="c" d="M204.11,192.8l-.06-.54h0a1.62,1.62,0,0,1-1.32.64,1.23,1.23,0,0,1-1.31-1.24c0-1,.92-1.61,2.59-1.6V190a.89.89,0,0,0-1-1,2.19,2.19,0,0,0-1.12.32l-.18-.51a2.69,2.69,0,0,1,1.41-.38c1.32,0,1.64.89,1.64,1.76v1.61a6.41,6.41,0,0,0,.07,1Zm-.11-2.2c-.86,0-1.83.14-1.83,1a.69.69,0,0,0,.74.75,1.07,1.07,0,0,0,1-.72.74.74,0,0,0,.05-.25Z"/><path class="c" d="M206.92,187.26v1.23H208v.6h-1.12v2.32c0,.54.15.84.59.84a1.57,1.57,0,0,0,.45-.06l0,.59a2,2,0,0,1-.7.11,1.08,1.08,0,0,1-.84-.33,1.6,1.6,0,0,1-.3-1.12v-2.35h-.67v-.6h.67v-1Z"/><path class="c" d="M209.79,187.28a.46.46,0,0,1-.5.48.47.47,0,0,1-.47-.48.48.48,0,0,1,.49-.49A.46.46,0,0,1,209.79,187.28Zm-.87,5.52v-4.31h.78v4.31Z"/><path class="c" d="M214.9,190.61a2.11,2.11,0,0,1-2.15,2.29,2.05,2.05,0,0,1-2.06-2.22,2.1,2.1,0,0,1,2.14-2.28A2,2,0,0,1,214.9,190.61Zm-3.42,0c0,.94.55,1.65,1.31,1.65s1.31-.7,1.31-1.67c0-.73-.37-1.66-1.29-1.66S211.48,189.84,211.48,190.66Z"/><path class="c" d="M215.88,189.66c0-.45,0-.81,0-1.17h.69l.05.72h0a1.6,1.6,0,0,1,1.43-.81c.59,0,1.52.35,1.52,1.83v2.57h-.78v-2.48c0-.7-.26-1.27-1-1.27a1.1,1.1,0,0,0-1.05.8,1,1,0,0,0-.05.36v2.59h-.79Z"/><path class="c" d="M180.5,202.53a2.78,2.78,0,0,0,1.39.39c.79,0,1.25-.42,1.25-1s-.32-.88-1.13-1.2c-1-.34-1.58-.85-1.58-1.69a1.72,1.72,0,0,1,1.94-1.63,2.71,2.71,0,0,1,1.32.29l-.21.63a2.51,2.51,0,0,0-1.14-.28c-.82,0-1.13.49-1.13.9,0,.56.37.83,1.19,1.15,1,.39,1.53.88,1.53,1.76s-.68,1.73-2.1,1.73a3.16,3.16,0,0,1-1.53-.38Z"/><path class="c" d="M188.09,203.31a2.86,2.86,0,0,1-1.24.25,2,2,0,0,1-2.14-2.2,2.18,2.18,0,0,1,2.31-2.28,2.54,2.54,0,0,1,1.08.22l-.17.6a1.91,1.91,0,0,0-.91-.2,1.62,1.62,0,0,0,0,3.24,2.15,2.15,0,0,0,1-.22Z"/><path class="c" d="M189,197.15h.79v2.69h0a1.48,1.48,0,0,1,.56-.55,1.65,1.65,0,0,1,.8-.22c.58,0,1.51.35,1.51,1.84v2.56h-.79V201c0-.7-.25-1.28-1-1.28a1.11,1.11,0,0,0-1,.78.85.85,0,0,0-.05.37v2.6H189Z"/><path class="c" d="M194.37,201.46a1.38,1.38,0,0,0,1.48,1.49,2.73,2.73,0,0,0,1.19-.22l.14.56a3.43,3.43,0,0,1-1.44.27,2,2,0,0,1-2.11-2.17,2.09,2.09,0,0,1,2-2.32,1.82,1.82,0,0,1,1.77,2,2.93,2.93,0,0,1,0,.36Zm2.3-.56a1.12,1.12,0,0,0-1.09-1.27,1.3,1.3,0,0,0-1.2,1.27Z"/><path class="c" d="M202.11,197.15v5.21c0,.38,0,.82,0,1.11h-.71l0-.75h0a1.6,1.6,0,0,1-1.47.85,2,2,0,0,1-1.84-2.19,2.06,2.06,0,0,1,1.93-2.31,1.44,1.44,0,0,1,1.3.66h0v-2.58Zm-.78,3.77a1.24,1.24,0,0,0,0-.33,1.14,1.14,0,0,0-1.13-.91c-.81,0-1.29.71-1.29,1.66s.43,1.6,1.28,1.6a1.17,1.17,0,0,0,1.14-.94,1.15,1.15,0,0,0,0-.33Z"/><path class="c" d="M207,202.3c0,.44,0,.83,0,1.17h-.7l0-.7h0a1.63,1.63,0,0,1-1.42.8c-.68,0-1.49-.37-1.49-1.89v-2.51h.78v2.38c0,.82.25,1.37,1,1.37a1.16,1.16,0,0,0,1-.71,1.29,1.29,0,0,0,.07-.4v-2.64H207Z"/><path class="c" d="M208.31,197.15h.78v6.32h-.78Z"/><path class="c" d="M210.84,201.46a1.38,1.38,0,0,0,1.48,1.49,2.73,2.73,0,0,0,1.19-.22l.14.56a3.43,3.43,0,0,1-1.44.27,2,2,0,0,1-2.11-2.17,2.09,2.09,0,0,1,2-2.32,1.82,1.82,0,0,1,1.77,2,2.93,2.93,0,0,1,0,.36Zm2.3-.56a1.12,1.12,0,0,0-1.09-1.27,1.3,1.3,0,0,0-1.2,1.27Z"/><path class="c" d="M218.58,197.15v5.21c0,.38,0,.82,0,1.11h-.71l0-.75h0a1.6,1.6,0,0,1-1.47.85,2,2,0,0,1-1.84-2.19,2.06,2.06,0,0,1,1.93-2.31,1.44,1.44,0,0,1,1.3.66h0v-2.58Zm-.78,3.77a1.24,1.24,0,0,0,0-.33,1.14,1.14,0,0,0-1.13-.91c-.81,0-1.29.71-1.29,1.66s.43,1.6,1.28,1.6a1.17,1.17,0,0,0,1.14-.94,1.15,1.15,0,0,0,0-.33Z"/><path class="c" d="M181.92,214.14l-1.95-6h.83l.94,2.95c.25.81.48,1.54.64,2.24h0c.17-.69.42-1.45.69-2.23l1-3h.83l-2.14,6Z"/><path class="c" d="M185.68,212.13a1.39,1.39,0,0,0,1.48,1.5,2.71,2.71,0,0,0,1.19-.23l.14.56a3.43,3.43,0,0,1-1.44.27,2,2,0,0,1-2.11-2.17,2.09,2.09,0,0,1,2-2.32,1.83,1.83,0,0,1,1.78,2,2.55,2.55,0,0,1,0,.36Zm2.3-.56a1.11,1.11,0,0,0-1.09-1.27,1.3,1.3,0,0,0-1.2,1.27Z"/><path class="c" d="M189.7,211c0-.44,0-.81,0-1.16h.69l0,.71h0a1.6,1.6,0,0,1,1.43-.81c.59,0,1.52.35,1.52,1.83v2.57h-.78v-2.48c0-.69-.26-1.27-1-1.27a1.1,1.1,0,0,0-1.05.8,1,1,0,0,0,0,.36v2.59h-.79Z"/><path class="c" d="M195.55,208.6v1.24h1.12v.59h-1.12v2.32c0,.54.15.84.58.84a2.18,2.18,0,0,0,.46-.05l0,.58a1.73,1.73,0,0,1-.69.11,1.07,1.07,0,0,1-.85-.33,1.6,1.6,0,0,1-.3-1.12v-2.35h-.67v-.59h.67v-1Z"/><path class="c" d="M198.42,208.63a.49.49,0,0,1-1,0,.47.47,0,0,1,.49-.49A.46.46,0,0,1,198.42,208.63Zm-.87,5.51v-4.3h.78v4.3Z"/><path class="c" d="M199.63,207.83h.78v6.31h-.78Z"/><path class="c" d="M204.11,214.14l-.06-.54h0a1.6,1.6,0,0,1-1.32.64,1.22,1.22,0,0,1-1.31-1.24c0-1,.92-1.61,2.59-1.6v-.09a.89.89,0,0,0-1-1,2.1,2.1,0,0,0-1.12.32l-.18-.52a2.69,2.69,0,0,1,1.41-.38c1.32,0,1.64.9,1.64,1.76v1.61a6.41,6.41,0,0,0,.07,1ZM204,212c-.86,0-1.83.13-1.83,1a.69.69,0,0,0,.74.75,1.06,1.06,0,0,0,1-.72.74.74,0,0,0,.05-.25Z"/><path class="c" d="M206.92,208.6v1.24H208v.59h-1.12v2.32c0,.54.15.84.59.84a2.16,2.16,0,0,0,.45-.05l0,.58a1.76,1.76,0,0,1-.7.11,1,1,0,0,1-.84-.33,1.6,1.6,0,0,1-.3-1.12v-2.35h-.67v-.59h.67v-1Z"/><path class="c" d="M209.79,208.63a.46.46,0,0,1-.5.48.47.47,0,0,1-.47-.48.48.48,0,0,1,.49-.49A.46.46,0,0,1,209.79,208.63Zm-.87,5.51v-4.3h.78v4.3Z"/><path class="c" d="M214.9,212a2.11,2.11,0,0,1-2.15,2.29,2,2,0,0,1-2.06-2.21,2.1,2.1,0,0,1,2.14-2.29A2,2,0,0,1,214.9,212Zm-3.42.05c0,.94.55,1.65,1.31,1.65s1.31-.7,1.31-1.67c0-.73-.37-1.65-1.29-1.65S211.48,211.18,211.48,212Z"/><path class="c" d="M215.88,211c0-.44,0-.81,0-1.16h.69l.05.71h0a1.6,1.6,0,0,1,1.43-.81c.59,0,1.52.35,1.52,1.83v2.57h-.78v-2.48c0-.69-.26-1.27-1-1.27a1.1,1.1,0,0,0-1.05.8,1,1,0,0,0-.05.36v2.59h-.79Z"/><path class="c" d="M338.76,168.4c0,2.06-1.25,3.15-2.78,3.15a2.74,2.74,0,0,1-2.7-3,2.85,2.85,0,0,1,2.79-3.15A2.74,2.74,0,0,1,338.76,168.4Zm-4.65.09c0,1.29.69,2.43,1.91,2.43s1.92-1.13,1.92-2.49c0-1.19-.62-2.44-1.91-2.44S334.11,167.18,334.11,168.49Z"/><path class="c" d="M342.84,171.3a3,3,0,0,1-1.23.25,2.05,2.05,0,0,1-2.15-2.2,2.19,2.19,0,0,1,2.31-2.29,2.72,2.72,0,0,1,1.09.22l-.18.61a1.79,1.79,0,0,0-.91-.21,1.49,1.49,0,0,0-1.52,1.63,1.48,1.48,0,0,0,1.5,1.61,2.2,2.2,0,0,0,1-.21Z"/><path class="c" d="M346.77,171.3a2.92,2.92,0,0,1-1.23.25,2.05,2.05,0,0,1-2.15-2.2,2.19,2.19,0,0,1,2.32-2.29,2.7,2.7,0,0,1,1.08.22l-.18.61a1.74,1.74,0,0,0-.9-.21,1.5,1.5,0,0,0-1.53,1.63,1.48,1.48,0,0,0,1.5,1.61,2.2,2.2,0,0,0,1-.21Z"/><path class="c" d="M351.29,170.28c0,.45,0,.84,0,1.18h-.7l0-.71h0a1.61,1.61,0,0,1-1.42.8c-.68,0-1.49-.37-1.49-1.88v-2.52h.78v2.39c0,.81.25,1.36,1,1.36a1.13,1.13,0,0,0,1-.71,1.19,1.19,0,0,0,.07-.4v-2.64h.78Z"/><path class="c" d="M352.59,168.56c0-.55,0-1,0-1.41h.71l0,.74h0a1.69,1.69,0,0,1,1.53-.84,2,2,0,0,1,1.82,2.19,2,2,0,0,1-2,2.31,1.51,1.51,0,0,1-1.33-.67h0v2.34h-.77Zm.77,1.14a1.47,1.47,0,0,0,0,.32,1.2,1.2,0,0,0,1.17.92c.83,0,1.31-.68,1.31-1.66s-.45-1.6-1.28-1.6a1.25,1.25,0,0,0-1.18,1,1.07,1.07,0,0,0-.06.32Z"/><path class="c" d="M360,171.46l-.06-.55h0a1.59,1.59,0,0,1-1.31.64,1.23,1.23,0,0,1-1.32-1.23c0-1,.93-1.61,2.59-1.6v-.09a.89.89,0,0,0-1-1,2.19,2.19,0,0,0-1.12.32l-.18-.51a2.61,2.61,0,0,1,1.42-.39c1.31,0,1.63.9,1.63,1.76v1.61a6.54,6.54,0,0,0,.07,1Zm-.11-2.2c-.86,0-1.83.13-1.83,1a.69.69,0,0,0,.74.75,1.07,1.07,0,0,0,1-.72.74.74,0,0,0,.05-.25Z"/><path class="c" d="M361.93,168.32c0-.45,0-.81,0-1.17h.69l.05.71h0a1.57,1.57,0,0,1,1.42-.81c.6,0,1.52.36,1.52,1.84v2.57h-.78V169c0-.69-.26-1.27-1-1.27a1.12,1.12,0,0,0-1.05.8,1.32,1.32,0,0,0,0,.37v2.59h-.79Z"/><path class="c" d="M369.94,171.3a3,3,0,0,1-1.24.25,2,2,0,0,1-2.14-2.2,2.19,2.19,0,0,1,2.31-2.29,2.8,2.8,0,0,1,1.09.22l-.18.61a1.79,1.79,0,0,0-.91-.21,1.62,1.62,0,0,0,0,3.24,2.24,2.24,0,0,0,1-.21Z"/><path class="c" d="M371.3,167.15l.94,2.55c.1.28.21.62.28.88h0c.08-.26.17-.59.27-.9l.86-2.53h.82l-1.17,3.07a6.53,6.53,0,0,1-1.48,2.7,2.08,2.08,0,0,1-1,.5l-.19-.66a2,2,0,0,0,.68-.38,2.44,2.44,0,0,0,.66-.87.67.67,0,0,0,.06-.19.92.92,0,0,0,0-.2l-1.59-4Z"/><path class="c" d="M336.74,179.32h-2.33v2.16H337v.65h-3.37v-6h3.24v.65h-2.47v1.9h2.33Z"/><path class="c" d="M340.89,181.46h0a1.53,1.53,0,0,1-1.41.77,2,2,0,0,1-1.82-2.18,2.07,2.07,0,0,1,1.95-2.33,1.41,1.41,0,0,1,1.32.75h0l0-.65h.74c0,.37,0,.74,0,1.19v4.88h-.78Zm0-1.89a1.2,1.2,0,0,0-1.16-1.22c-.81,0-1.3.68-1.3,1.65s.41,1.6,1.27,1.6a1.16,1.16,0,0,0,1.12-.85,1.21,1.21,0,0,0,.07-.37Z"/><path class="c" d="M346.56,181c0,.45,0,.84,0,1.18h-.7l0-.7h0a1.63,1.63,0,0,1-1.42.8c-.68,0-1.49-.38-1.49-1.89v-2.52h.78v2.39c0,.82.25,1.37,1,1.37a1.15,1.15,0,0,0,1-.72,1.19,1.19,0,0,0,.07-.4v-2.64h.78Z"/><path class="c" d="M348.73,176.61a.49.49,0,0,1-1,0,.48.48,0,0,1,.49-.49A.47.47,0,0,1,348.73,176.61Zm-.87,5.52v-4.31h.78v4.31Z"/><path class="c" d="M349.94,179.23c0-.55,0-1,0-1.41h.71l0,.74h0a1.71,1.71,0,0,1,1.53-.84,2,2,0,0,1,1.82,2.19,2,2,0,0,1-1.95,2.32,1.52,1.52,0,0,1-1.33-.68h0v2.34h-.77Zm.77,1.15a1.65,1.65,0,0,0,0,.32,1.2,1.2,0,0,0,1.17.91c.83,0,1.31-.67,1.31-1.66s-.45-1.6-1.28-1.6a1.25,1.25,0,0,0-1.18,1,1.07,1.07,0,0,0-.06.32Z"/><path class="c" d="M355,179c0-.45,0-.81,0-1.17h.69l0,.7h0a1.49,1.49,0,0,1,1.35-.8,1.28,1.28,0,0,1,1.22.87h0a1.67,1.67,0,0,1,.48-.56,1.45,1.45,0,0,1,1-.31c.57,0,1.42.38,1.42,1.87v2.54h-.77v-2.44c0-.83-.3-1.33-.93-1.33a1,1,0,0,0-.93.72,1.45,1.45,0,0,0-.06.39v2.66h-.77v-2.58c0-.69-.3-1.19-.89-1.19a1.07,1.07,0,0,0-1,.79,1,1,0,0,0-.07.38v2.6H355Z"/><path class="c" d="M362.85,180.12a1.38,1.38,0,0,0,1.48,1.49,2.89,2.89,0,0,0,1.19-.22l.13.56a3.5,3.5,0,0,1-1.43.27,2,2,0,0,1-2.12-2.17,2.1,2.1,0,0,1,2-2.33,1.82,1.82,0,0,1,1.78,2,3.12,3.12,0,0,1,0,.37Zm2.3-.56a1.12,1.12,0,0,0-1.09-1.28,1.3,1.3,0,0,0-1.2,1.28Z"/><path class="c" d="M366.87,179c0-.45,0-.81,0-1.17h.69l0,.71h0a1.59,1.59,0,0,1,1.42-.81c.6,0,1.53.36,1.53,1.84v2.57h-.79v-2.48c0-.7-.26-1.28-1-1.28a1.11,1.11,0,0,0-1.05.8,1.06,1.06,0,0,0-.06.37v2.59h-.78Z"/><path class="c" d="M372.71,176.59v1.23h1.12v.6h-1.12v2.32c0,.53.15.84.59.84a1.51,1.51,0,0,0,.45-.06l0,.59a1.94,1.94,0,0,1-.69.11,1.11,1.11,0,0,1-.85-.33,1.61,1.61,0,0,1-.3-1.12v-2.35h-.67v-.6H372v-1Z"/><path class="c" d="M333.64,186.8h.77v5.35H337v.65h-3.33Z"/><path class="c" d="M338.68,187.28a.49.49,0,0,1-1,0,.48.48,0,0,1,.49-.49A.47.47,0,0,1,338.68,187.28Zm-.87,5.52v-4.31h.78v4.31Z"/><path class="c" d="M343.6,188.49c0,.32,0,.66,0,1.19v2.5a2.46,2.46,0,0,1-.61,2,2.29,2.29,0,0,1-1.57.52,2.81,2.81,0,0,1-1.43-.36l.2-.59a2.49,2.49,0,0,0,1.26.34c.8,0,1.39-.42,1.39-1.51v-.48h0a1.53,1.53,0,0,1-1.37.72,1.92,1.92,0,0,1-1.83-2.1,2.06,2.06,0,0,1,1.94-2.28,1.44,1.44,0,0,1,1.34.74h0l0-.65Zm-.81,1.7a1,1,0,0,0-.05-.35,1.12,1.12,0,0,0-1.09-.83c-.75,0-1.28.63-1.28,1.63,0,.84.43,1.55,1.27,1.55a1.16,1.16,0,0,0,1.09-.81,1.45,1.45,0,0,0,.06-.41Z"/><path class="c" d="M344.86,186.48h.78v2.69h0a1.41,1.41,0,0,1,.56-.55,1.65,1.65,0,0,1,.8-.22c.58,0,1.5.35,1.5,1.84v2.56h-.78v-2.47c0-.7-.26-1.28-1-1.28a1.11,1.11,0,0,0-1.05.78.85.85,0,0,0-.06.37v2.6h-.78Z"/><path class="c" d="M350.7,187.26v1.23h1.12v.6H350.7v2.32c0,.54.15.84.59.84a1.51,1.51,0,0,0,.45-.06l0,.59a1.94,1.94,0,0,1-.69.11,1.11,1.11,0,0,1-.85-.33,1.6,1.6,0,0,1-.3-1.12v-2.35h-.67v-.6h.67v-1Z"/><path class="c" d="M353.58,187.28a.47.47,0,0,1-.5.48.46.46,0,0,1-.47-.48.48.48,0,0,1,.49-.49A.47.47,0,0,1,353.58,187.28Zm-.88,5.52v-4.31h.79v4.31Z"/><path class="c" d="M354.78,189.66c0-.45,0-.81,0-1.17h.69l.05.72h0a1.57,1.57,0,0,1,1.42-.81c.59,0,1.52.35,1.52,1.83v2.57h-.78v-2.48c0-.7-.26-1.27-1-1.27a1.1,1.1,0,0,0-1.05.8,1.25,1.25,0,0,0-.05.36v2.59h-.79Z"/><path class="c" d="M363.43,188.49c0,.32,0,.66,0,1.19v2.5a2.46,2.46,0,0,1-.61,2,2.29,2.29,0,0,1-1.57.52,2.81,2.81,0,0,1-1.43-.36l.2-.59a2.49,2.49,0,0,0,1.26.34c.8,0,1.39-.42,1.39-1.51v-.48h0a1.53,1.53,0,0,1-1.37.72,1.92,1.92,0,0,1-1.83-2.1,2.06,2.06,0,0,1,1.94-2.28,1.43,1.43,0,0,1,1.34.74h0l0-.65Zm-.81,1.7a1.25,1.25,0,0,0,0-.35,1.14,1.14,0,0,0-1.1-.83c-.75,0-1.28.63-1.28,1.63,0,.84.43,1.55,1.27,1.55a1.16,1.16,0,0,0,1.09-.81,1.45,1.45,0,0,0,.06-.41Z"/><path class="c" d="M257.52,174h3.23v.64h-2.46v2h2.27v.64h-2.27V180h-.77Z"/><path class="c" d="M261.67,173.67h.78V180h-.78Z"/><path class="c" d="M267.67,177.79a2.11,2.11,0,0,1-2.15,2.29,2.05,2.05,0,0,1-2.06-2.22,2.1,2.1,0,0,1,2.13-2.28A2,2,0,0,1,267.67,177.79Zm-3.42.05c0,.94.54,1.65,1.31,1.65s1.31-.7,1.31-1.67c0-.73-.37-1.66-1.29-1.66S264.25,177,264.25,177.84Z"/><path class="c" d="M268.9,175.68l.57,2.18c.13.48.24.93.32,1.37h0c.1-.43.24-.89.38-1.36l.7-2.19h.66l.67,2.15c.16.51.28,1,.38,1.4h0a11,11,0,0,1,.33-1.39l.61-2.16h.77L273,180h-.71l-.66-2c-.15-.48-.28-.91-.39-1.42h0a14.16,14.16,0,0,1-.39,1.43l-.7,2h-.71l-1.3-4.3Z"/><path class="c" d="M277,177c0-.51,0-.94,0-1.34h.69l0,.84h0a1.29,1.29,0,0,1,1.19-.94l.23,0v.74a1.11,1.11,0,0,0-1.32,1,2,2,0,0,0,0,.37V180H277Z"/><path class="c" d="M282.27,180l-.06-.54h0a1.6,1.6,0,0,1-1.32.64,1.22,1.22,0,0,1-1.31-1.24c0-1,.92-1.61,2.58-1.6v-.09a.88.88,0,0,0-1-1,2.16,2.16,0,0,0-1.13.32l-.17-.52a2.66,2.66,0,0,1,1.41-.38c1.32,0,1.64.9,1.64,1.76V179a6.41,6.41,0,0,0,.07,1Zm-.12-2.2c-.85,0-1.82.14-1.82,1a.69.69,0,0,0,.74.75,1,1,0,0,0,1.08-1Z"/><path class="c" d="M285.08,174.44v1.24h1.12v.59h-1.12v2.32c0,.54.15.84.58.84a2.18,2.18,0,0,0,.46-.05l0,.58a1.73,1.73,0,0,1-.69.11,1.12,1.12,0,0,1-.85-.33,1.6,1.6,0,0,1-.3-1.12v-2.35h-.67v-.59h.67v-1Z"/><path class="c" d="M287.46,178a1.38,1.38,0,0,0,1.48,1.5,2.71,2.71,0,0,0,1.19-.23l.13.56a3.34,3.34,0,0,1-1.43.27,2,2,0,0,1-2.12-2.17,2.09,2.09,0,0,1,2-2.32,1.82,1.82,0,0,1,1.78,2,2.55,2.55,0,0,1,0,.36Zm2.3-.56a1.12,1.12,0,0,0-1.09-1.27,1.3,1.3,0,0,0-1.2,1.27Z"/><path class="c" d="M258.66,185.32h-1.83v-.66h4.44v.66h-1.83v5.33h-.78Z"/><path class="c" d="M261.72,188.64a1.38,1.38,0,0,0,1.47,1.5,2.71,2.71,0,0,0,1.19-.23l.14.56a3.41,3.41,0,0,1-1.43.27,2,2,0,0,1-2.12-2.17,2.09,2.09,0,0,1,2-2.32,1.83,1.83,0,0,1,1.78,2,2.55,2.55,0,0,1,0,.36Zm2.29-.56a1.11,1.11,0,0,0-1.08-1.27,1.31,1.31,0,0,0-1.21,1.27Z"/><path class="c" d="M265.73,187.51c0-.44,0-.81,0-1.16h.68l0,.69h0a1.48,1.48,0,0,1,1.35-.79,1.27,1.27,0,0,1,1.22.86h0a1.67,1.67,0,0,1,.48-.56,1.48,1.48,0,0,1,1-.3c.57,0,1.41.37,1.41,1.87v2.53h-.76v-2.43c0-.83-.31-1.33-.94-1.33a1,1,0,0,0-.92.71,1.18,1.18,0,0,0-.06.39v2.66h-.77v-2.58c0-.68-.3-1.18-.9-1.18a1.07,1.07,0,0,0-1,.78,1.21,1.21,0,0,0-.06.38v2.6h-.77Z"/><path class="c" d="M273.15,187.75c0-.55,0-1,0-1.4h.7l0,.74h0a1.69,1.69,0,0,1,1.53-.84,2,2,0,0,1,1.83,2.19,2,2,0,0,1-2,2.31,1.52,1.52,0,0,1-1.33-.68h0v2.34h-.78Zm.78,1.15a1.58,1.58,0,0,0,0,.32,1.21,1.21,0,0,0,1.18.92c.82,0,1.3-.68,1.3-1.67s-.45-1.6-1.28-1.6a1.25,1.25,0,0,0-1.18,1,1.13,1.13,0,0,0-.05.32Z"/><path class="c" d="M278.65,188.64a1.38,1.38,0,0,0,1.47,1.5,2.8,2.8,0,0,0,1.2-.23l.13.56a3.41,3.41,0,0,1-1.43.27,2,2,0,0,1-2.12-2.17,2.09,2.09,0,0,1,2-2.32,1.83,1.83,0,0,1,1.78,2,2.55,2.55,0,0,1,0,.36Zm2.29-.56a1.11,1.11,0,0,0-1.08-1.27,1.29,1.29,0,0,0-1.2,1.27Z"/><path class="c" d="M282.67,187.69c0-.51,0-.94,0-1.34h.69l0,.84h0a1.28,1.28,0,0,1,1.19-.94.73.73,0,0,1,.22,0V187l-.26,0a1.09,1.09,0,0,0-1,1,2,2,0,0,0,0,.37v2.29h-.77Z"/><path class="c" d="M287.91,190.65l-.06-.54h0a1.61,1.61,0,0,1-1.32.64,1.23,1.23,0,0,1-1.32-1.24c0-1,.93-1.61,2.59-1.6v-.09a.89.89,0,0,0-1-1,2.1,2.1,0,0,0-1.12.32l-.18-.52a2.72,2.72,0,0,1,1.42-.38c1.31,0,1.64.9,1.64,1.76v1.61a5.44,5.44,0,0,0,.07,1Zm-.11-2.19c-.86,0-1.83.13-1.83,1a.69.69,0,0,0,.74.75,1.06,1.06,0,0,0,1-.72.74.74,0,0,0,.05-.25Z"/><path class="c" d="M290.72,185.11v1.24h1.13v.59h-1.13v2.32c0,.54.16.84.59.84a2.18,2.18,0,0,0,.46,0l0,.58a1.73,1.73,0,0,1-.69.11,1.07,1.07,0,0,1-.85-.33,1.6,1.6,0,0,1-.3-1.12v-2.35h-.67v-.59H290v-1Z"/><path class="c" d="M296.33,189.48q0,.66,0,1.17h-.69l0-.7h0a1.63,1.63,0,0,1-1.43.8c-.67,0-1.48-.37-1.48-1.89v-2.51h.78v2.38c0,.82.25,1.37,1,1.37a1.11,1.11,0,0,0,1-.71,1.06,1.06,0,0,0,.08-.4v-2.64h.78Z"/><path class="c" d="M297.63,187.69c0-.51,0-.94,0-1.34h.68l0,.84h0a1.27,1.27,0,0,1,1.19-.94.73.73,0,0,1,.22,0V187l-.27,0a1.1,1.1,0,0,0-1.05,1,3.7,3.7,0,0,0,0,.37v2.29h-.77Z"/><path class="c" d="M300.88,188.64a1.38,1.38,0,0,0,1.48,1.5,2.71,2.71,0,0,0,1.19-.23l.13.56a3.34,3.34,0,0,1-1.43.27,2,2,0,0,1-2.12-2.17,2.09,2.09,0,0,1,2-2.32,1.82,1.82,0,0,1,1.78,2c0,.16,0,.28,0,.36Zm2.3-.56a1.12,1.12,0,0,0-1.09-1.27,1.3,1.3,0,0,0-1.2,1.27Z"/><path class="c" d="M4.55,195,3,189h.82l.71,3c.18.75.34,1.49.44,2.07H5c.1-.59.29-1.31.49-2.08l.8-3h.81l.73,3c.17.71.33,1.42.42,2.05h0c.12-.66.29-1.32.48-2.07l.79-3h.79l-1.7,6H7.84l-.76-3.12a19.84,19.84,0,0,1-.39-2h0a20,20,0,0,1-.47,2L5.36,195Z"/><path class="c" d="M13.16,195l-.06-.54h0a1.6,1.6,0,0,1-1.32.64,1.22,1.22,0,0,1-1.31-1.24c0-1,.92-1.61,2.58-1.6v-.09a.88.88,0,0,0-1-1,2.1,2.1,0,0,0-1.12.32l-.18-.52a2.66,2.66,0,0,1,1.41-.38c1.32,0,1.64.9,1.64,1.76V194a6.41,6.41,0,0,0,.07,1Zm-.12-2.2c-.85,0-1.82.14-1.82,1a.69.69,0,0,0,.74.75,1.07,1.07,0,0,0,1-.72,1.09,1.09,0,0,0,0-.25Z"/><path class="c" d="M15.06,188.67h.78V195h-.78Z"/><path class="c" d="M17.16,188.67h.78V195h-.78Z"/><path class="c" d="M3.57,199.74a8,8,0,0,1,1.49-.13,2.44,2.44,0,0,1,1.73.49,1.51,1.51,0,0,1,.47,1.14,1.57,1.57,0,0,1-1.13,1.53v0A1.46,1.46,0,0,1,7,204a9.24,9.24,0,0,0,.47,1.64h-.8a7.32,7.32,0,0,1-.41-1.43c-.17-.83-.49-1.14-1.2-1.16H4.34v2.59H3.57Zm.77,2.73h.8c.82,0,1.35-.46,1.35-1.14s-.56-1.11-1.38-1.12a3.08,3.08,0,0,0-.77.07Z"/><path class="c" d="M12.26,203.46a2.1,2.1,0,0,1-2.14,2.29,2,2,0,0,1-2.07-2.21,2.11,2.11,0,0,1,2.14-2.29A2,2,0,0,1,12.26,203.46Zm-3.42,0c0,.94.55,1.65,1.31,1.65s1.31-.7,1.31-1.67c0-.73-.37-1.65-1.29-1.65S8.84,202.69,8.84,203.51Z"/><path class="c" d="M17.14,203.46A2.1,2.1,0,0,1,15,205.75a2,2,0,0,1-2.07-2.21,2.11,2.11,0,0,1,2.14-2.29A2,2,0,0,1,17.14,203.46Zm-3.41,0c0,.94.54,1.65,1.3,1.65s1.31-.7,1.31-1.67c0-.73-.36-1.65-1.29-1.65S13.73,202.69,13.73,203.51Z"/><path class="c" d="M18.21,205.65v-3.71H17.6v-.59h.61v-.21a2,2,0,0,1,.5-1.5,1.46,1.46,0,0,1,1.05-.4,1.85,1.85,0,0,1,.66.12l-.1.61a1.25,1.25,0,0,0-.5-.1c-.67,0-.84.59-.84,1.25v.23h1v.59H19v3.71Z"/><path class="c" d="M3.57,210.33H6.8V211H4.34v2H6.61v.64H4.34v2.71H3.57Z"/><path class="c" d="M7.72,210h.79v6.31H7.72Z"/><path class="c" d="M13.72,214.14a2.1,2.1,0,0,1-2.15,2.28,2,2,0,0,1-2.06-2.21,2.11,2.11,0,0,1,2.14-2.29A2,2,0,0,1,13.72,214.14Zm-3.42,0c0,.94.55,1.66,1.31,1.66s1.31-.71,1.31-1.68c0-.73-.37-1.65-1.29-1.65S10.3,213.36,10.3,214.18Z"/><path class="c" d="M18.6,214.14a2.1,2.1,0,0,1-2.14,2.28,2,2,0,0,1-2.07-2.21,2.11,2.11,0,0,1,2.14-2.29A2,2,0,0,1,18.6,214.14Zm-3.42,0c0,.94.55,1.66,1.31,1.66s1.31-.71,1.31-1.68c0-.73-.36-1.65-1.29-1.65S15.18,213.36,15.18,214.18Z"/><path class="c" d="M19.59,213.36c0-.5,0-.94,0-1.34h.69l0,.84h0a1.3,1.3,0,0,1,1.19-.94.73.73,0,0,1,.22,0v.74a1,1,0,0,0-.26,0,1.09,1.09,0,0,0-1.05,1,2.1,2.1,0,0,0,0,.37v2.29h-.77Z"/><path class="c" d="M3.46,226.05a2.71,2.71,0,0,0,1.39.39c.79,0,1.26-.41,1.26-1s-.32-.88-1.13-1.19c-1-.35-1.59-.85-1.59-1.7a1.73,1.73,0,0,1,1.94-1.63,2.63,2.63,0,0,1,1.33.3l-.22.63a2.29,2.29,0,0,0-1.13-.29c-.82,0-1.13.49-1.13.9,0,.56.36.84,1.19,1.16,1,.39,1.53.88,1.53,1.76s-.69,1.72-2.1,1.72a3,3,0,0,1-1.53-.38Z"/><path class="c" d="M7.93,220.68h.78V227H7.93Z"/><path class="c" d="M12.41,227l-.06-.55h0a1.59,1.59,0,0,1-1.31.64,1.22,1.22,0,0,1-1.32-1.23c0-1,.92-1.61,2.59-1.6v-.09a.89.89,0,0,0-1-1,2.19,2.19,0,0,0-1.12.32L10,223a2.69,2.69,0,0,1,1.41-.38c1.32,0,1.64.9,1.64,1.76V226a6.54,6.54,0,0,0,.07,1Zm-.11-2.2c-.86,0-1.83.13-1.83,1a.69.69,0,0,0,.74.75,1.07,1.07,0,0,0,1-.73.64.64,0,0,0,.05-.24Z"/><path class="c" d="M14.28,227c0-.3,0-.73,0-1.12v-5.2h.78v2.7h0a1.62,1.62,0,0,1,1.47-.79,1.93,1.93,0,0,1,1.82,2.2,2,2,0,0,1-1.93,2.3,1.52,1.52,0,0,1-1.44-.81h0l0,.72Zm.81-1.73a1.19,1.19,0,0,0,1.21,1.2c.82,0,1.3-.67,1.3-1.65s-.44-1.6-1.28-1.6a1.24,1.24,0,0,0-1.19,1,1.32,1.32,0,0,0,0,.32Z"/><path class="c" d="M3.57,231.74a9.28,9.28,0,0,1,1.49-.11,2.43,2.43,0,0,1,1.68.5,1.6,1.6,0,0,1,.52,1.25,1.77,1.77,0,0,1-.46,1.28,2.47,2.47,0,0,1-1.83.66,3,3,0,0,1-.63,0v2.4H3.57Zm.77,2.89a2.36,2.36,0,0,0,.64.07c.94,0,1.51-.46,1.51-1.29s-.56-1.17-1.42-1.17a3.8,3.8,0,0,0-.73.06Z"/><path class="c" d="M10.43,237.67l-.06-.55h0a1.6,1.6,0,0,1-1.32.64,1.22,1.22,0,0,1-1.31-1.23c0-1,.92-1.61,2.58-1.6v-.09a.88.88,0,0,0-1-1,2.19,2.19,0,0,0-1.12.32L8,233.65a2.57,2.57,0,0,1,1.41-.39c1.32,0,1.64.9,1.64,1.77v1.61a6.5,6.5,0,0,0,.07,1Zm-.12-2.2c-.85,0-1.82.13-1.82,1a.69.69,0,0,0,.74.75,1,1,0,0,0,1.08-1Z"/><path class="c" d="M12.33,234.7c0-.5,0-.94,0-1.34H13l0,.85h0a1.3,1.3,0,0,1,1.19-1,.85.85,0,0,1,.23,0V234a1.06,1.06,0,0,0-.27,0,1.1,1.1,0,0,0-1,1,1.88,1.88,0,0,0,0,.36v2.3h-.77Z"/><path class="c" d="M16.39,232.13v1.23h1.13v.6H16.39v2.32c0,.53.16.84.59.84a1.46,1.46,0,0,0,.45-.06l0,.59a1.94,1.94,0,0,1-.69.11,1.11,1.11,0,0,1-.85-.33,1.61,1.61,0,0,1-.3-1.12V234H15v-.6h.67v-1Z"/><path class="c" d="M19.27,232.15a.49.49,0,0,1-1,0,.48.48,0,0,1,.49-.49A.47.47,0,0,1,19.27,232.15Zm-.88,5.52v-4.31h.79v4.31Z"/><path class="c" d="M21.42,232.13v1.23h1.12v.6H21.42v2.32c0,.53.15.84.59.84a1.57,1.57,0,0,0,.45-.06l0,.59a2,2,0,0,1-.7.11,1.08,1.08,0,0,1-.84-.33,1.56,1.56,0,0,1-.31-1.12V234H20v-.6h.66v-1Z"/><path class="c" d="M24.29,232.15a.49.49,0,0,1-1,0,.48.48,0,0,1,.49-.49A.47.47,0,0,1,24.29,232.15Zm-.87,5.52v-4.31h.78v4.31Z"/><path class="c" d="M29.4,235.48a2.1,2.1,0,0,1-2.15,2.28,2,2,0,0,1-2.06-2.21,2.1,2.1,0,0,1,2.13-2.29A2,2,0,0,1,29.4,235.48Zm-3.42,0c0,.95.54,1.66,1.31,1.66s1.31-.7,1.31-1.67c0-.73-.37-1.66-1.29-1.66S26,234.7,26,235.52Z"/><path class="c" d="M30.38,234.53c0-.45,0-.81,0-1.17H31l0,.71h0a1.59,1.59,0,0,1,1.43-.81c.59,0,1.52.36,1.52,1.84v2.57h-.79v-2.48c0-.7-.25-1.28-1-1.28a1.11,1.11,0,0,0-1.05.8,1.06,1.06,0,0,0-.06.37v2.59h-.78Z"/><path class="f" d="M219.17,106.7S30.34,100.48,30.34,156.25"/><path class="c" d="M219.22,105.29a1.4,1.4,0,0,1,1.36,1.45,1.41,1.41,0,1,1-2.82-.09A1.41,1.41,0,0,1,219.22,105.29Z"/><polygon class="c" points="29.25 155.5 30.34 159.57 31.43 155.5 29.25 155.5"/><path class="f" d="M219.17,106.7s-88.45-5.93-88.45,26"/><path class="c" d="M219.27,105.29a1.41,1.41,0,1,1-1.51,1.31A1.42,1.42,0,0,1,219.27,105.29Z"/><polygon class="c" points="129.63 131.98 130.72 136.04 131.81 131.98 129.63 131.98"/><path class="f" d="M219.17,106.7s-12.23-1.5-12.23,26"/><path class="c" d="M219.34,105.3a1.4,1.4,0,0,1,1.23,1.57,1.41,1.41,0,1,1-1.23-1.57Z"/><polygon class="c" points="205.85 131.98 206.94 136.04 208.03 131.98 205.85 131.98"/><path class="f" d="M219.17,106.7s65.27-2.48,65.27,26"/><path class="c" d="M219.22,108.11a1.41,1.41,0,1,1,1.36-1.47A1.42,1.42,0,0,1,219.22,108.11Z"/><polygon class="c" points="283.35 131.98 284.44 136.04 285.53 131.98 283.35 131.98"/><path class="f" d="M219.17,106.7s141.49-2,141.49,26"/><path class="c" d="M219.19,108.11a1.41,1.41,0,1,1,1.39-1.43A1.41,1.41,0,0,1,219.19,108.11Z"/><polygon class="c" points="359.57 131.98 360.66 136.04 361.75 131.98 359.57 131.98"/><line class="g" x1="29.71" y1="251.61" x2="29.71" y2="265.97"/><circle class="c" cx="29.71" cy="251.68" r="1.41"/><polygon class="c" points="28.62 265.22 29.71 269.29 30.8 265.22 28.62 265.22"/><path class="g" d="M284.37,226.68c-.92,9.55-11.66,17.18-27.63,17.18-16.12,0-25.24,13.62-27.27,22.14"/><path class="c" d="M282.93,226.66a1.41,1.41,0,1,1,1.32,1.5A1.43,1.43,0,0,1,282.93,226.66Z"/><polygon class="c" points="228.55 265.11 229.03 269.29 230.7 265.43 228.55 265.11"/><path class="g" d="M212,228.09c.47,28.25,15.7,13.3,16.93,37.88"/><path class="c" d="M210.66,228.21a1.41,1.41,0,1,1,1.46,1.36A1.42,1.42,0,0,1,210.66,228.21Z"/><polygon class="c" points="227.79 265.27 229.03 269.29 229.97 265.19 227.79 265.27"/><path class="g" d="M131.16,227.4c2,4.64,11.66,20.56,52.16,20.56,36.35,0,43.8,11.88,45.32,18"/><path class="c" d="M129.88,228a1.41,1.41,0,1,1,1.81.83A1.41,1.41,0,0,1,129.88,228Z"/><polygon class="c" points="227.4 265.41 229.03 269.29 229.56 265.11 227.4 265.41"/><path class="g" d="M360.49,227.12c-2.5,9.8-32.16,20.2-70.48,20.2-32.63,0-56.18,8.41-60.32,18.71"/><path class="c" d="M359.06,227a1.4,1.4,0,0,1,1.6-1.18,1.41,1.41,0,0,1,1.19,1.6,1.43,1.43,0,0,1-1.61,1.19A1.41,1.41,0,0,1,359.06,227Z"/><polygon class="c" points="228.86 265.08 229.03 269.29 230.98 265.56 228.86 265.08"/><path class="c" d="M205.48,73.5l2.86-4.11v0h-2.59V68.24h4.35V69l-2.79,4v0h2.83v1.12h-4.66Z"/><path class="c" d="M215.17,72a2.18,2.18,0,0,1-2.3,2.32,2.13,2.13,0,0,1-2.25-2.24,2.18,2.18,0,0,1,2.32-2.31A2.12,2.12,0,0,1,215.17,72Zm-3.15,0c0,.75.31,1.31.89,1.31s.86-.53.86-1.31-.25-1.31-.86-1.31S212,71.41,212,72.05Z"/><path class="c" d="M216,71.27c0-.54,0-1,0-1.39h1.17l.06.6h0a1.58,1.58,0,0,1,1.34-.7c.89,0,1.56.59,1.56,1.87v2.58h-1.35V71.82c0-.56-.2-.94-.69-.94a.71.71,0,0,0-.68.5.87.87,0,0,0,0,.34v2.51H216Z"/><path class="c" d="M222.26,72.49c0,.56.59.82,1.22.82a4,4,0,0,0,1.2-.17l.18.91a4.23,4.23,0,0,1-1.57.27A2.08,2.08,0,0,1,221,72.1a2.17,2.17,0,0,1,2.19-2.32A1.93,1.93,0,0,1,225.1,72a3.21,3.21,0,0,1,0,.54Zm1.59-.93a.78.78,0,0,0-.77-.88.88.88,0,0,0-.83.88Z"/><rect class="d" x="322" y="0.38" width="60.23" height="39.91" rx="3.94"/><path class="c" d="M378.29.75a3.57,3.57,0,0,1,3.56,3.56v32a3.57,3.57,0,0,1-3.56,3.57H325.94a3.57,3.57,0,0,1-3.57-3.57v-32A3.57,3.57,0,0,1,325.94.75h52.35m0-.75H325.94a4.31,4.31,0,0,0-4.32,4.31v32a4.32,4.32,0,0,0,4.32,4.32h52.35a4.32,4.32,0,0,0,4.31-4.32v-32A4.31,4.31,0,0,0,378.29,0Z"/><path class="c" d="M335.87,10.22a10.9,10.9,0,0,1,1.75-.12,3.29,3.29,0,0,1,1.77.34,1.3,1.3,0,0,1,.72,1.17,1.35,1.35,0,0,1-1,1.28v0a1.49,1.49,0,0,1,1.19,1.48,1.57,1.57,0,0,1-.62,1.27,3.75,3.75,0,0,1-2.36.54,9.58,9.58,0,0,1-1.46-.09Zm1.34,2.3h.44c.72,0,1.1-.29,1.1-.74s-.35-.69-1-.69a5.52,5.52,0,0,0-.58,0Zm0,2.66a3.72,3.72,0,0,0,.52,0c.62,0,1.16-.23,1.16-.87s-.54-.84-1.22-.84h-.46Z"/><path class="c" d="M345.29,14.74c0,.57,0,1,0,1.4h-1.17l-.07-.61h0a1.57,1.57,0,0,1-1.36.71c-.89,0-1.53-.55-1.53-1.9V11.79h1.36v2.34c0,.63.2,1,.67,1a.72.72,0,0,0,.68-.47.85.85,0,0,0,0-.29V11.79h1.36Z"/><path class="c" d="M347.77,10.58a.68.68,0,0,1-.72.68.67.67,0,0,1-.71-.68.66.66,0,0,1,.71-.68A.67.67,0,0,1,347.77,10.58Zm-1.39,5.56V11.79h1.35v4.35Z"/><path class="c" d="M348.81,9.82h1.36v6.32h-1.36Z"/><path class="c" d="M355.48,9.82v5c0,.49,0,1,0,1.3h-1.2l-.06-.64h0a1.51,1.51,0,0,1-1.36.74A2,2,0,0,1,351,14,2.06,2.06,0,0,1,353,11.69a1.35,1.35,0,0,1,1.15.49h0V9.82Zm-1.36,3.81a1.93,1.93,0,0,0,0-.24.83.83,0,0,0-.8-.67c-.61,0-.93.56-.93,1.24s.37,1.2.93,1.2a.79.79,0,0,0,.78-.65,1,1,0,0,0,0-.31Z"/><path class="c" d="M358,10.58a.69.69,0,0,1-.73.68.68.68,0,0,1-.71-.68.67.67,0,0,1,.72-.68A.68.68,0,0,1,358,10.58Zm-1.4,5.56V11.79h1.35v4.35Z"/><path class="c" d="M359,13.18c0-.54,0-1,0-1.39h1.18l.06.6h0a1.6,1.6,0,0,1,1.35-.7c.89,0,1.55.59,1.55,1.87v2.58h-1.35V13.73c0-.56-.19-.94-.68-.94a.72.72,0,0,0-.69.5,1.11,1.11,0,0,0,0,.34v2.51H359Z"/><path class="c" d="M368.36,11.79c0,.28,0,.64,0,1.29v2.43a2.52,2.52,0,0,1-.66,2,2.68,2.68,0,0,1-1.77.53,3.43,3.43,0,0,1-1.57-.34l.27-1a2.7,2.7,0,0,0,1.26.33A1,1,0,0,0,367,15.82v-.28h0a1.38,1.38,0,0,1-1.17.56A1.91,1.91,0,0,1,364,14a2.08,2.08,0,0,1,2-2.29,1.32,1.32,0,0,1,1.2.62h0l.05-.52ZM367,13.56a1,1,0,0,0,0-.25.75.75,0,0,0-.73-.59c-.49,0-.89.44-.89,1.23s.32,1.16.89,1.16a.74.74,0,0,0,.71-.55,1,1,0,0,0,0-.36Z"/><path class="c" d="M335.42,22h-1.61V20.82h4.61V22h-1.64v4.86h-1.36Z"/><path class="c" d="M339.41,25.07c0,.56.6.83,1.23.83a4,4,0,0,0,1.2-.18l.18.91a4.29,4.29,0,0,1-1.58.27,2.09,2.09,0,0,1-2.32-2.21,2.19,2.19,0,0,1,2.2-2.33,1.94,1.94,0,0,1,1.94,2.17,2.89,2.89,0,0,1-.05.54Zm1.59-.93a.78.78,0,0,0-.76-.88.9.9,0,0,0-.84.88Z"/><path class="c" d="M343.06,23.85c0-.54,0-1,0-1.39h1.14l.06.59h0a1.49,1.49,0,0,1,1.31-.69,1.25,1.25,0,0,1,1.2.74h0a2,2,0,0,1,.56-.52,1.51,1.51,0,0,1,.83-.22c.84,0,1.47.59,1.47,1.89v2.56h-1.32V24.45c0-.64-.2-1-.64-1a.66.66,0,0,0-.62.47,1,1,0,0,0-.05.35v2.54h-1.32V24.37c0-.55-.2-.92-.62-.92a.71.71,0,0,0-.64.49,1,1,0,0,0-.05.34v2.53h-1.32Z"/><path class="c" d="M350.71,23.92c0-.57,0-1.06,0-1.46h1.17l.06.61h0a1.66,1.66,0,0,1,1.45-.71,2,2,0,0,1,1.81,2.22,2.07,2.07,0,0,1-2,2.33,1.35,1.35,0,0,1-1.13-.5h0v2.16h-1.35Zm1.35,1a1.23,1.23,0,0,0,0,.29.82.82,0,0,0,.79.64c.59,0,.94-.49.94-1.23s-.31-1.22-.92-1.22a.86.86,0,0,0-.81.69.93.93,0,0,0,0,.24Z"/><path class="c" d="M356,20.5h1.35v6.31H356Z"/><path class="c" d="M361,26.81l-.08-.43h0a1.58,1.58,0,0,1-1.24.53,1.34,1.34,0,0,1-1.41-1.33c0-1.13,1-1.68,2.55-1.67v-.06c0-.23-.12-.56-.79-.56a2.45,2.45,0,0,0-1.2.33l-.25-.87a3.59,3.59,0,0,1,1.69-.39,1.7,1.7,0,0,1,1.92,1.88v1.51a6.17,6.17,0,0,0,.06,1.06Zm-.16-2c-.71,0-1.26.16-1.26.68a.49.49,0,0,0,.53.52.73.73,0,0,0,.7-.5.85.85,0,0,0,0-.23Z"/><path class="c" d="M364.61,21.22v1.24h1v1h-1V25c0,.53.13.77.54.77a2.06,2.06,0,0,0,.4,0v1a2.46,2.46,0,0,1-.89.12,1.41,1.41,0,0,1-1-.37,1.81,1.81,0,0,1-.37-1.29V23.46h-.58v-1h.58v-.94Z"/><path class="c" d="M367.36,25.07c0,.56.6.83,1.23.83a4,4,0,0,0,1.2-.18l.18.91a4.29,4.29,0,0,1-1.58.27,2.09,2.09,0,0,1-2.32-2.21,2.19,2.19,0,0,1,2.2-2.33,1.94,1.94,0,0,1,1.94,2.17,2.89,2.89,0,0,1,0,.54Zm1.59-.93a.78.78,0,0,0-.76-.88.9.9,0,0,0-.84.88Z"/><path class="c" d="M349.42,148h1.36v4.85h2.38v1.14h-3.74Z"/><path class="c" d="M358.13,151.72a2.18,2.18,0,0,1-2.29,2.32,2.13,2.13,0,0,1-2.25-2.24,2.16,2.16,0,0,1,2.32-2.3A2.1,2.1,0,0,1,358.13,151.72Zm-3.14,0c0,.75.31,1.31.89,1.31s.86-.52.86-1.31-.25-1.3-.86-1.3S355,151.12,355,151.76Z"/><path class="c" d="M361.44,153.94l-.08-.43h0a1.6,1.6,0,0,1-1.25.53,1.34,1.34,0,0,1-1.41-1.33c0-1.13,1-1.68,2.56-1.67V151c0-.23-.13-.56-.79-.56a2.46,2.46,0,0,0-1.21.33l-.24-.87a3.55,3.55,0,0,1,1.69-.38,1.69,1.69,0,0,1,1.91,1.87v1.51a7.39,7.39,0,0,0,.06,1.06Zm-.16-2.05c-.71,0-1.26.16-1.26.68a.49.49,0,0,0,.53.52.74.74,0,0,0,.71-.5,1.64,1.64,0,0,0,0-.23Z"/><path class="c" d="M367.88,147.63v5c0,.49,0,1,0,1.3h-1.2l-.07-.64h0a1.54,1.54,0,0,1-1.37.74,2,2,0,0,1-1.85-2.23,2,2,0,0,1,1.94-2.31,1.33,1.33,0,0,1,1.15.48h0v-2.35Zm-1.35,3.8a2.12,2.12,0,0,0,0-.24.81.81,0,0,0-.79-.66c-.62,0-.94.55-.94,1.23s.37,1.2.93,1.2a.78.78,0,0,0,.78-.64,1.08,1.08,0,0,0,0-.32Z"/><path class="c" d="M369,152.76a2.6,2.6,0,0,0,1.16.33c.41,0,.58-.14.58-.37s-.14-.32-.64-.49c-.9-.31-1.25-.8-1.24-1.31,0-.81.7-1.42,1.77-1.42a3,3,0,0,1,1.23.24l-.24.94a2.11,2.11,0,0,0-.94-.25c-.33,0-.52.13-.52.35s.17.32.7.5c.83.29,1.18.71,1.19,1.35,0,.81-.64,1.4-1.89,1.4a3,3,0,0,1-1.4-.3Z"/><path class="c" d="M8,177.3a4,4,0,0,1-1.54.26,2.85,2.85,0,0,1-3.14-3,3.06,3.06,0,0,1,3.27-3.19,3.63,3.63,0,0,1,1.48.27l-.28,1.08a2.82,2.82,0,0,0-1.14-.23,2,2,0,0,0,0,3.95,3.27,3.27,0,0,0,1.13-.2Z"/><path class="c" d="M13,175.24a2.19,2.19,0,0,1-2.3,2.33,2.14,2.14,0,0,1-2.25-2.25,2.17,2.17,0,0,1,2.32-2.3A2.12,2.12,0,0,1,13,175.24Zm-3.15,0c0,.75.31,1.31.89,1.31s.86-.53.86-1.31-.25-1.31-.86-1.31S9.82,174.65,9.82,175.29Z"/><path class="c" d="M13.8,174.51c0-.55,0-1,0-1.39h1.17l.06.59h0a1.6,1.6,0,0,1,1.34-.69c.89,0,1.56.59,1.56,1.87v2.58H16.58v-2.41c0-.56-.2-.95-.69-.95a.72.72,0,0,0-.68.51.83.83,0,0,0-.06.34v2.51H13.8Z"/><path class="c" d="M19,176.28a2.56,2.56,0,0,0,1.17.33c.41,0,.58-.14.58-.36s-.13-.33-.64-.5c-.9-.3-1.25-.79-1.24-1.31,0-.81.7-1.42,1.77-1.42a2.83,2.83,0,0,1,1.23.25l-.24.93a2.25,2.25,0,0,0-.94-.25c-.33,0-.52.14-.52.36s.17.31.7.5c.83.28,1.18.7,1.19,1.34,0,.81-.64,1.41-1.89,1.41a3.07,3.07,0,0,1-1.41-.31Z"/><path class="c" d="M24.39,171.87v1.25h1v1h-1v1.58c0,.52.12.76.53.76a2.1,2.1,0,0,0,.4,0v1a2.68,2.68,0,0,1-.88.12,1.44,1.44,0,0,1-1-.38,1.79,1.79,0,0,1-.37-1.29v-1.78h-.58v-1h.58v-1Z"/><path class="c" d="M26.14,174.55c0-.64,0-1.06,0-1.43h1.17l0,.8h0a1.29,1.29,0,0,1,1.46-.88v1.27a1.82,1.82,0,0,0-.37,0,.86.86,0,0,0-.92.69,1.39,1.39,0,0,0,0,.3v2.21H26.14Z"/><path class="c" d="M33.59,176.07c0,.57,0,1,0,1.4H32.45l-.06-.62h0a1.54,1.54,0,0,1-1.36.72c-.88,0-1.53-.56-1.53-1.9v-2.55h1.36v2.34c0,.63.21,1,.68,1a.74.74,0,0,0,.68-.47.88.88,0,0,0,0-.29v-2.59h1.36Z"/><path class="c" d="M37.94,177.36a3.2,3.2,0,0,1-1.21.2,2.11,2.11,0,0,1-2.3-2.23A2.27,2.27,0,0,1,36.92,173a3.09,3.09,0,0,1,1,.17l-.22,1a1.87,1.87,0,0,0-.75-.13,1.22,1.22,0,0,0,0,2.44,2.08,2.08,0,0,0,.77-.14Z"/><path class="c" d="M40.34,171.87v1.25h1v1h-1v1.58c0,.52.12.76.53.76a2,2,0,0,0,.4,0v1a2.68,2.68,0,0,1-.88.12,1.41,1.41,0,0,1-1-.38,1.79,1.79,0,0,1-.38-1.29v-1.78h-.57v-1H39v-1Z"/><path class="c" d="M43.49,171.91a.68.68,0,0,1-.73.67.65.65,0,0,1-.7-.67.66.66,0,0,1,.71-.69A.69.69,0,0,1,43.49,171.91Zm-1.4,5.56v-4.35h1.35v4.35Z"/><path class="c" d="M48.82,175.24a2.18,2.18,0,0,1-2.29,2.33,2.14,2.14,0,0,1-2.25-2.25A2.17,2.17,0,0,1,46.6,173,2.12,2.12,0,0,1,48.82,175.24Zm-3.14,0c0,.75.31,1.31.88,1.31s.87-.53.87-1.31-.25-1.31-.87-1.31S45.68,174.65,45.68,175.29Z"/><path class="c" d="M49.66,174.51c0-.55,0-1,0-1.39H50.8l.06.59h0a1.59,1.59,0,0,1,1.34-.69c.89,0,1.56.59,1.56,1.87v2.58H52.43v-2.41c0-.56-.19-.95-.68-.95a.73.73,0,0,0-.69.51A1.06,1.06,0,0,0,51,175v2.51H49.66Z"/><path class="c" d="M54.86,176.28a2.56,2.56,0,0,0,1.17.33c.41,0,.57-.14.57-.36s-.13-.33-.64-.5c-.89-.3-1.24-.79-1.23-1.31,0-.81.69-1.42,1.77-1.42a2.83,2.83,0,0,1,1.23.25l-.24.93a2.26,2.26,0,0,0-1-.25c-.33,0-.51.14-.51.36s.17.31.7.5c.83.28,1.17.7,1.18,1.34,0,.81-.64,1.41-1.88,1.41a3.07,3.07,0,0,1-1.41-.31Z"/><rect class="e" x="0.09" y="273.8" width="60.98" height="77.63" rx="4.31"/><path class="c" d="M56.76,273.8h-4v.75h4v-.75Zm-8,0h-4v.75h4v-.75Zm-8,0h-4v.75h4v-.75Zm-8,0h-4v.75h4v-.75Zm-8,0h-4v.75h4v-.75Zm-8,0h-4v.75h4v-.75Zm-8,0h-4v.75h4v-.75Zm-7.58,1.45H1.13v0h0l0,0H1l0,0H1a4.28,4.28,0,0,0-.82,1.81h0v.05h0v0h0v0h0v0h0V279H.84v-.87a3.54,3.54,0,0,1,.9-2.36l-.56-.5ZM.84,283H.09v4H.84v-4Zm0,8H.09v4H.84v-4Zm0,8H.09v4H.84v-4Zm0,8H.09v4H.84v-4Zm0,8H.09v4H.84v-4Zm0,8H.09v4H.84v-4Zm0,8H.09v4H.84v-4Zm0,8H.09v4H.84v-4Zm0,8H.09v.13h0v0h0v0h0v0h0v0h0v0h0v0h0v0h0v0h0v0h0v0h0v0h0v0h0v0h0v0h0a4.35,4.35,0,0,0,.3.88h0l0,.09h0v0H.64v0H1v0H1l0,0H1v0h0a3.81,3.81,0,0,0,.67.66l.46-.58a3.56,3.56,0,0,1-1.34-2.79V347Zm8.66,3.69h-4v.75h4v-.75Zm8,0h-4v.75h4v-.75Zm8,0h-4v.75h4v-.75Zm8,0h-4v.75h4v-.75Zm8,0h-4v.75h4v-.75Zm8,0h-4v.75h4v-.75Zm7.87-.05a3.14,3.14,0,0,1-.61.05H53.5v.75h3.55l.45-.06-.13-.74Zm3.7-5.47h-.75v2a3.49,3.49,0,0,1-.39,1.62l.67.34a3.54,3.54,0,0,0,.16-.34h0v0h.17v0h0v0h0v0h0v0h0v0h0v0h0v0h0v0h0v-2Zm0-8h-.75v4h.75v-4Zm0-8h-.75v4h.75v-4Zm0-8h-.75v4h.75v-4Zm0-8h-.75v4h.75v-4Zm0-8h-.75v4h.75v-4Zm0-8h-.75v4h.75v-4Zm0-8h-.75v4h.75v-4Zm0-8h-.75v4h.75v-4Zm-2.55-7-.31.69a3.54,3.54,0,0,1,2,2.46l.74-.17a4.37,4.37,0,0,0-2.13-2.82h-.28l0,0Z"/><path class="c" d="M4.91,314.66H3.08V314H7.52v.66H5.69V320H4.91Z"/><path class="c" d="M8.1,313.68h.78v2.69h0a1.41,1.41,0,0,1,.56-.55,1.56,1.56,0,0,1,.8-.23c.58,0,1.5.36,1.5,1.85V320H11v-2.47c0-.7-.26-1.29-1-1.29a1.12,1.12,0,0,0-1,.79.82.82,0,0,0-.06.37V320H8.1Z"/><path class="c" d="M13.47,318A1.38,1.38,0,0,0,15,319.48a2.89,2.89,0,0,0,1.19-.22l.13.56a3.5,3.5,0,0,1-1.43.27,2,2,0,0,1-2.12-2.17,2.1,2.1,0,0,1,2-2.33,1.82,1.82,0,0,1,1.78,2c0,.16,0,.29,0,.37Zm2.3-.56a1.12,1.12,0,0,0-1.09-1.27,1.29,1.29,0,0,0-1.2,1.27Z"/><path class="c" d="M17.49,317c0-.51,0-1,0-1.35h.69l0,.85h0a1.3,1.3,0,0,1,1.19-1,.85.85,0,0,1,.23,0v.74a1.06,1.06,0,0,0-.27,0,1.1,1.1,0,0,0-1.05,1,2,2,0,0,0,0,.36V320h-.77Z"/><path class="c" d="M20.43,316.86c0-.45,0-.81,0-1.17h.68l0,.7h0a1.5,1.5,0,0,1,1.36-.8,1.29,1.29,0,0,1,1.22.87h0a1.93,1.93,0,0,1,.48-.56,1.47,1.47,0,0,1,1-.31c.56,0,1.41.38,1.41,1.87V320h-.77v-2.44c0-.83-.3-1.32-.93-1.32A1,1,0,0,0,24,317a1.13,1.13,0,0,0-.07.39V320h-.76v-2.58c0-.69-.3-1.18-.9-1.18a1.06,1.06,0,0,0-1,.78,1.16,1.16,0,0,0-.06.38V320h-.77Z"/><path class="c" d="M30.23,320l-.06-.54h0a1.62,1.62,0,0,1-1.31.64,1.23,1.23,0,0,1-1.32-1.24c0-1,.93-1.61,2.59-1.6v-.09a.89.89,0,0,0-1-1,2.19,2.19,0,0,0-1.12.32l-.18-.51a2.7,2.7,0,0,1,1.42-.39c1.31,0,1.63.9,1.63,1.77V319a5.45,5.45,0,0,0,.08,1Zm-.11-2.2c-.86,0-1.83.13-1.83,1a.69.69,0,0,0,.74.75,1.07,1.07,0,0,0,1-.72.74.74,0,0,0,.05-.25Z"/><path class="c" d="M32.14,313.68h.78V320h-.78Z"/><path class="c" d="M3.77,324.75a8.06,8.06,0,0,1,1.48-.12,2.44,2.44,0,0,1,1.68.5,1.6,1.6,0,0,1,.53,1.25A1.77,1.77,0,0,1,7,327.66a2.48,2.48,0,0,1-1.84.66,2.94,2.94,0,0,1-.62-.05v2.4H3.77Zm.77,2.89a2.84,2.84,0,0,0,.64.06c.94,0,1.51-.45,1.51-1.28s-.56-1.18-1.42-1.18a2.93,2.93,0,0,0-.73.07Z"/><path class="c" d="M8.33,327.71c0-.51,0-.95,0-1.35H9l0,.85H9a1.29,1.29,0,0,1,1.19-.94l.23,0V327a1.11,1.11,0,0,0-1.32,1,2,2,0,0,0,0,.37v2.29H8.33Z"/><path class="c" d="M15.05,328.48a2.11,2.11,0,0,1-2.15,2.29,2.05,2.05,0,0,1-2.06-2.22A2.1,2.1,0,0,1,13,326.27,2,2,0,0,1,15.05,328.48Zm-3.42,0c0,.94.54,1.65,1.31,1.65s1.3-.7,1.3-1.67c0-.73-.36-1.66-1.29-1.66S11.63,327.71,11.63,328.53Z"/><path class="c" d="M16,327.77c0-.55,0-1,0-1.41h.7l0,.74h0a1.7,1.7,0,0,1,1.53-.83,2,2,0,0,1,1.83,2.19,2,2,0,0,1-2,2.31,1.52,1.52,0,0,1-1.33-.68h0v2.34H16Zm.78,1.15a1.66,1.66,0,0,0,0,.32,1.2,1.2,0,0,0,1.18.91c.82,0,1.3-.67,1.3-1.66s-.45-1.6-1.28-1.6a1.25,1.25,0,0,0-1.18,1,1.13,1.13,0,0,0-.05.32Z"/><path class="c" d="M21.53,328.66A1.37,1.37,0,0,0,23,330.15a2.82,2.82,0,0,0,1.2-.22l.13.56a3.41,3.41,0,0,1-1.43.27,2,2,0,0,1-2.12-2.17,2.09,2.09,0,0,1,2-2.32,1.83,1.83,0,0,1,1.78,2,2.55,2.55,0,0,1,0,.36Zm2.29-.56a1.11,1.11,0,0,0-1.08-1.27,1.3,1.3,0,0,0-1.2,1.27Z"/><path class="c" d="M25.55,327.71c0-.51,0-.95,0-1.35h.69l0,.85h0a1.28,1.28,0,0,1,1.19-.94l.22,0V327a1.06,1.06,0,0,0-.26,0,1.08,1.08,0,0,0-1.05,1,2,2,0,0,0,0,.37v2.29h-.77Z"/><path class="c" d="M29.61,325.13v1.23h1.12v.6H29.61v2.32c0,.54.15.84.59.84a2.16,2.16,0,0,0,.45-.05l0,.58a1.76,1.76,0,0,1-.7.11,1.08,1.08,0,0,1-.84-.33,1.6,1.6,0,0,1-.3-1.12V327h-.67v-.6h.67v-1Z"/><path class="c" d="M32.48,325.15a.46.46,0,0,1-.5.48.47.47,0,0,1-.47-.48.48.48,0,0,1,.49-.48A.46.46,0,0,1,32.48,325.15Zm-.87,5.52v-4.31h.78v4.31Z"/><path class="c" d="M34.13,328.66a1.37,1.37,0,0,0,1.47,1.49,2.82,2.82,0,0,0,1.2-.22l.13.56a3.41,3.41,0,0,1-1.43.27,2,2,0,0,1-2.12-2.17,2.09,2.09,0,0,1,2-2.32,1.82,1.82,0,0,1,1.78,2,2.55,2.55,0,0,1,0,.36Zm2.29-.56a1.11,1.11,0,0,0-1.08-1.27,1.3,1.3,0,0,0-1.2,1.27Z"/><path class="c" d="M38,329.87a2.06,2.06,0,0,0,1,.31c.57,0,.84-.28.84-.64s-.22-.58-.8-.79c-.78-.28-1.14-.7-1.14-1.22a1.33,1.33,0,0,1,1.48-1.26,2.17,2.17,0,0,1,1.06.26l-.19.57a1.74,1.74,0,0,0-.88-.25c-.47,0-.72.27-.72.59s.25.52.81.73c.75.29,1.13.66,1.13,1.3s-.58,1.29-1.61,1.29a2.57,2.57,0,0,1-1.21-.29Z"/><path class="c" d="M20.82,286.88A2.86,2.86,0,0,1,17.88,290,2.8,2.8,0,0,1,15.06,287,2.9,2.9,0,0,1,18,283.84,2.79,2.79,0,0,1,20.82,286.88Zm-4.33.08c0,1.17.55,2,1.46,2s1.44-.87,1.44-2-.52-2-1.45-2S16.49,285.79,16.49,287Z"/><path class="c" d="M21.7,287.05c0-.57,0-1.06,0-1.46h1.18l.06.6h0a1.68,1.68,0,0,1,1.45-.7,2,2,0,0,1,1.8,2.22,2.07,2.07,0,0,1-2,2.33,1.36,1.36,0,0,1-1.13-.5h0v2.16H21.7Zm1.35,1a1.14,1.14,0,0,0,0,.28.81.81,0,0,0,.79.64c.59,0,.93-.48.93-1.22s-.31-1.22-.91-1.22a.85.85,0,0,0-.81.68.93.93,0,0,0,0,.24Z"/><path class="c" d="M29.49,289.94l-.08-.44h0a1.55,1.55,0,0,1-1.24.54,1.34,1.34,0,0,1-1.41-1.34c0-1.13,1-1.67,2.56-1.66V287c0-.24-.13-.56-.8-.56a2.56,2.56,0,0,0-1.2.32l-.25-.87a3.61,3.61,0,0,1,1.69-.38,1.7,1.7,0,0,1,1.92,1.88v1.51a6.17,6.17,0,0,0,.06,1.06Zm-.16-2.06c-.71,0-1.26.16-1.26.69a.48.48,0,0,0,.53.51.73.73,0,0,0,.7-.49,1,1,0,0,0,0-.24Z"/><path class="c" d="M34.58,289.39h0a1.48,1.48,0,0,1-1.29.65,2,2,0,0,1-1.81-2.22,2.08,2.08,0,0,1,1.92-2.33,1.29,1.29,0,0,1,1.21.6h0l0-.5H36c0,.42,0,.85,0,1.31v4.8H34.58Zm0-2a.83.83,0,0,0,0-.22.79.79,0,0,0-.77-.65c-.63,0-.94.52-.94,1.23s.35,1.2.92,1.2a.8.8,0,0,0,.78-.62,1,1,0,0,0,0-.29Z"/><path class="c" d="M41.1,288.54c0,.57,0,1,0,1.4H40l-.07-.62h0a1.55,1.55,0,0,1-1.36.72c-.88,0-1.53-.56-1.53-1.9v-2.55h1.36v2.34c0,.63.2,1,.67,1a.73.73,0,0,0,.68-.47.88.88,0,0,0,0-.29v-2.59H41.1Z"/><path class="c" d="M43.23,288.19c0,.56.6.83,1.23.83a3.74,3.74,0,0,0,1.2-.18l.18.92a4.29,4.29,0,0,1-1.58.27,2.09,2.09,0,0,1-2.32-2.22,2.18,2.18,0,0,1,2.2-2.32,1.93,1.93,0,0,1,1.94,2.17,2.76,2.76,0,0,1,0,.53Zm1.59-.92a.78.78,0,0,0-.76-.88.89.89,0,0,0-.84.88Z"/><path class="c" d="M17.75,298.31c0-.72-.06-1.59-.06-2.46h0c-.19.77-.44,1.62-.67,2.32l-.73,2.34H15.21l-.64-2.32c-.19-.7-.4-1.56-.54-2.34h0c0,.81-.06,1.74-.1,2.48l-.11,2.28H12.54l.39-6h1.8l.59,2c.19.69.37,1.44.51,2.14h0c.17-.69.38-1.49.57-2.15l.64-2h1.77l.33,6H17.84Z"/><path class="c" d="M22.66,300.61l-.08-.44h0a1.57,1.57,0,0,1-1.25.54,1.33,1.33,0,0,1-1.4-1.34c0-1.13,1-1.67,2.55-1.66v-.06c0-.23-.12-.56-.79-.56a2.39,2.39,0,0,0-1.2.33l-.25-.88a3.71,3.71,0,0,1,1.69-.38A1.69,1.69,0,0,1,23.81,298v1.51a7.39,7.39,0,0,0,.06,1.06Zm-.16-2.06c-.72,0-1.27.17-1.27.69a.49.49,0,0,0,.54.52.75.75,0,0,0,.7-.5.85.85,0,0,0,0-.23Z"/><path class="c" d="M26.32,295v1.25h1v1h-1v1.57c0,.53.12.77.53.77a1.9,1.9,0,0,0,.4,0v1a2.68,2.68,0,0,1-.88.12,1.41,1.41,0,0,1-1-.37A1.81,1.81,0,0,1,25,299v-1.78h-.57v-1H25v-.94Z"/><path class="c" d="M29.07,298.87c0,.56.59.82,1.22.82a4.06,4.06,0,0,0,1.21-.17l.17.91a4.2,4.2,0,0,1-1.57.27,2.09,2.09,0,0,1-2.32-2.22A2.17,2.17,0,0,1,30,296.16a1.93,1.93,0,0,1,1.94,2.17,3.21,3.21,0,0,1,0,.54Zm1.59-.93a.78.78,0,0,0-.77-.88.89.89,0,0,0-.83.88Z"/><path class="c" d="M32.72,297.69c0-.64,0-1.06,0-1.43h1.16l0,.8h0a1.28,1.28,0,0,1,1.18-.9,1.23,1.23,0,0,1,.28,0v1.27a1.79,1.79,0,0,0-.36,0,.87.87,0,0,0-.93.68,1.45,1.45,0,0,0,0,.3v2.21H32.72Z"/><path class="c" d="M37.5,295.05a.69.69,0,0,1-.73.68.69.69,0,1,1,0-1.37A.69.69,0,0,1,37.5,295.05Zm-1.4,5.56v-4.35h1.35v4.35Z"/><path class="c" d="M41,300.61l-.08-.44h0a1.55,1.55,0,0,1-1.24.54,1.34,1.34,0,0,1-1.41-1.34c0-1.13,1-1.67,2.56-1.66v-.06c0-.23-.13-.56-.8-.56a2.45,2.45,0,0,0-1.2.33l-.25-.88a3.74,3.74,0,0,1,1.69-.38A1.7,1.7,0,0,1,42.17,298v1.51a6.17,6.17,0,0,0,.06,1.06Zm-.16-2.06c-.71,0-1.26.17-1.26.69a.49.49,0,0,0,.53.52.74.74,0,0,0,.7-.5.85.85,0,0,0,0-.23Z"/><path class="c" d="M43.23,294.29h1.36v6.32H43.23Z"/><path class="c" d="M45.67,299.43a2.64,2.64,0,0,0,1.16.33c.41,0,.58-.15.58-.37s-.13-.33-.64-.5c-.9-.3-1.24-.79-1.23-1.3,0-.81.69-1.43,1.77-1.43a2.93,2.93,0,0,1,1.22.25l-.24.93a2.22,2.22,0,0,0-.94-.24c-.33,0-.52.13-.52.35s.17.31.71.5c.82.28,1.17.7,1.18,1.34,0,.81-.64,1.41-1.89,1.41a3.2,3.2,0,0,1-1.4-.3Z"/><rect class="e" x="196.56" y="273.8" width="60.98" height="77.63" rx="4.31"/><path class="c" d="M253.23,273.8h-4v.75h4v-.75Zm-8,0h-4v.75h4v-.75Zm-8,0h-4v.75h4v-.75Zm-8,0h-4v.75h4v-.75Zm-8,0h-4v.75h4v-.75Zm-8,0h-4v.75h4v-.75Zm-8,0h-4v.75h4v-.75Zm-7.58,1.45h-.05v0h0l0,0h0l0,0h0a4.28,4.28,0,0,0-.82,1.81h0v.05h0v0h0v0h0v0h0V279h.75v-.87a3.54,3.54,0,0,1,.9-2.36l-.56-.5Zm-.34,7.73h-.75v4h.75v-4Zm0,8h-.75v4h.75v-4Zm0,8h-.75v4h.75v-4Zm0,8h-.75v4h.75v-4Zm0,8h-.75v4h.75v-4Zm0,8h-.75v4h.75v-4Zm0,8h-.75v4h.75v-4Zm0,8h-.75v4h.75v-4Zm0,8h-.75v.13h0v0h0v0h0v0h0v0h0v0h0v0h0v0h0v0h0v0h0v0h0v0h0v0h0v0h0v0h0a4.35,4.35,0,0,0,.3.88h0a.41.41,0,0,0,.05.09h0v0h.09v0h.34v0h0l0,0h0v0h0a4.18,4.18,0,0,0,.67.66l.47-.58a3.54,3.54,0,0,1-1.35-2.79V347Zm8.66,3.69h-4v.75h4v-.75Zm8,0h-4v.75h4v-.75Zm8,0h-4v.75h4v-.75Zm8,0h-4v.75h4v-.75Zm8,0h-4v.75h4v-.75Zm8,0h-4v.75h4v-.75Zm7.87-.05a3.08,3.08,0,0,1-.61.05H250v.75h3.55l.45-.06-.13-.74Zm3.7-5.47h-.75v2a3.61,3.61,0,0,1-.38,1.62l.66.34a4.23,4.23,0,0,0,.25-.58h0v0h.21v-2Zm0-8h-.75v4h.75v-4Zm0-8h-.75v4h.75v-4Zm0-8h-.75v4h.75v-4Zm0-8h-.75v4h.75v-4Zm0-8h-.75v4h.75v-4Zm0-8h-.75v4h.75v-4Zm0-8h-.75v4h.75v-4Zm0-8h-.75v4h.75v-4Zm-2.55-7-.31.69a3.57,3.57,0,0,1,2,2.46l.73-.17a4.91,4.91,0,0,0-.15-.51h0v0h-.09v0h0a4.35,4.35,0,0,0-1.38-1.71h-.23a3.91,3.91,0,0,0-.57-.31Z"/><path class="c" d="M200.19,301.35a11.49,11.49,0,0,1,1.65-.12,3.49,3.49,0,0,1,2.43.74,2.79,2.79,0,0,1,.84,2.16,3.16,3.16,0,0,1-.86,2.33,3.68,3.68,0,0,1-2.65.86,13.94,13.94,0,0,1-1.41-.07Zm.78,5.3a4.3,4.3,0,0,0,.78.05,2.3,2.3,0,0,0,2.55-2.55,2.13,2.13,0,0,0-2.42-2.31,4.65,4.65,0,0,0-.91.08Z"/><path class="c" d="M208.47,307.27l-.06-.55h0a1.63,1.63,0,0,1-1.32.65,1.23,1.23,0,0,1-1.32-1.24c0-1,.93-1.61,2.59-1.6v-.09a.89.89,0,0,0-1-1,2.19,2.19,0,0,0-1.12.32l-.18-.51a2.7,2.7,0,0,1,1.42-.39c1.31,0,1.63.9,1.63,1.77v1.61a5.45,5.45,0,0,0,.08,1Zm-.11-2.2c-.86,0-1.83.13-1.83,1a.69.69,0,0,0,.74.75,1.07,1.07,0,0,0,1-.72.74.74,0,0,0,.05-.25Z"/><path class="c" d="M210.59,303l.94,2.55c.1.28.21.62.28.88h0c.08-.26.17-.59.27-.9L213,303h.82L212.61,306a6.53,6.53,0,0,1-1.48,2.7,2.08,2.08,0,0,1-1,.5l-.19-.65a2.2,2.2,0,0,0,.68-.39,2.44,2.44,0,0,0,.66-.87.67.67,0,0,0,.06-.19.92.92,0,0,0,0-.2l-1.59-4Z"/><path class="c" d="M201.17,317.94l-1.52-6h.82l.71,3c.18.74.34,1.49.45,2.07h0c.1-.6.29-1.31.49-2.08l.8-3h.81l.73,3.05c.17.71.33,1.42.42,2.05h0c.12-.66.29-1.32.48-2.07l.79-3H207l-1.7,6h-.81l-.75-3.12a17.3,17.3,0,0,1-.39-2h0c-.11.6-.24,1.18-.46,2l-.86,3.12Z"/><path class="c" d="M207.83,315.93a1.38,1.38,0,0,0,1.48,1.49,2.73,2.73,0,0,0,1.19-.22l.14.56a3.43,3.43,0,0,1-1.44.27,2,2,0,0,1-2.11-2.17,2.09,2.09,0,0,1,2-2.32,1.82,1.82,0,0,1,1.78,2,2.73,2.73,0,0,1,0,.37Zm2.3-.56A1.12,1.12,0,0,0,209,314.1a1.3,1.3,0,0,0-1.2,1.27Z"/><path class="c" d="M212.29,315.93a1.38,1.38,0,0,0,1.48,1.49,2.76,2.76,0,0,0,1.19-.22l.13.56a3.41,3.41,0,0,1-1.43.27,2,2,0,0,1-2.12-2.17,2.09,2.09,0,0,1,2-2.32,1.82,1.82,0,0,1,1.78,2,2.73,2.73,0,0,1,0,.37Zm2.29-.56a1.11,1.11,0,0,0-1.08-1.27,1.3,1.3,0,0,0-1.2,1.27Z"/><path class="c" d="M217.08,315.61h0l.38-.49,1.27-1.49h.94L218,315.4l1.9,2.54H219l-1.49-2.06-.4.44v1.62h-.77v-6.32h.77Z"/><path class="c" d="M201.53,328.61v-2.54l-1.9-3.45h.88l.85,1.65c.23.45.41.82.6,1.24h0c.17-.39.38-.79.61-1.24l.86-1.65h.88l-2,3.44v2.55Z"/><path class="c" d="M204.74,326.6a1.38,1.38,0,0,0,1.47,1.5,2.8,2.8,0,0,0,1.2-.23l.13.56a3.41,3.41,0,0,1-1.43.27,2,2,0,0,1-2.12-2.17,2.09,2.09,0,0,1,2-2.32,1.82,1.82,0,0,1,1.78,2,2.55,2.55,0,0,1,0,.36ZM207,326a1.11,1.11,0,0,0-1.08-1.27,1.3,1.3,0,0,0-1.2,1.27Z"/><path class="c" d="M211.14,328.61l-.06-.54h0a1.59,1.59,0,0,1-1.31.64,1.22,1.22,0,0,1-1.32-1.24c0-1,.92-1.61,2.59-1.6v-.09a.89.89,0,0,0-1-1,2.1,2.1,0,0,0-1.12.32l-.18-.52a2.69,2.69,0,0,1,1.41-.38c1.32,0,1.64.9,1.64,1.76v1.61a6.41,6.41,0,0,0,.07,1Zm-.11-2.2c-.86,0-1.83.14-1.83,1a.69.69,0,0,0,.74.75,1.06,1.06,0,0,0,1-.72.74.74,0,0,0,.05-.25Z"/><path class="c" d="M213,325.65c0-.51,0-.94,0-1.34h.68l0,.84h0a1.27,1.27,0,0,1,1.19-.94l.22,0V325l-.27,0a1.09,1.09,0,0,0-1.05,1,3.7,3.7,0,0,0,0,.37v2.29H213Z"/><path class="c" d="M207.67,288.36a3.6,3.6,0,0,0,1.5.37c.63,0,1-.26,1-.65s-.29-.59-1-.84c-1-.35-1.65-.9-1.65-1.77,0-1,.86-1.81,2.27-1.81a3.64,3.64,0,0,1,1.53.3l-.3,1.1a2.78,2.78,0,0,0-1.25-.29c-.59,0-.87.27-.87.58s.33.55,1.11.85c1.06.39,1.55.94,1.55,1.78,0,1-.77,1.86-2.42,1.86a3.91,3.91,0,0,1-1.7-.36Z"/><path class="c" d="M215.71,289.65a3.45,3.45,0,0,1-1.21.19,2.11,2.11,0,0,1-2.3-2.22,2.27,2.27,0,0,1,2.49-2.31,3.37,3.37,0,0,1,1,.16l-.21,1a1.89,1.89,0,0,0-.76-.13,1.22,1.22,0,0,0,0,2.43,2.05,2.05,0,0,0,.77-.13Z"/><path class="c" d="M216.46,283.44h1.35v2.48h0a1.65,1.65,0,0,1,.53-.45,1.6,1.6,0,0,1,.7-.16c.87,0,1.52.59,1.52,1.9v2.54h-1.35v-2.39c0-.57-.19-1-.7-1a.72.72,0,0,0-.68.47,1,1,0,0,0,0,.3v2.58h-1.35Z"/><path class="c" d="M222.71,288c0,.56.6.83,1.23.83a3.74,3.74,0,0,0,1.2-.18l.18.92a4.51,4.51,0,0,1-1.58.26,2.08,2.08,0,0,1-2.32-2.21,2.17,2.17,0,0,1,2.2-2.32,1.93,1.93,0,0,1,1.94,2.17,2.85,2.85,0,0,1-.05.53Zm1.59-.92a.79.79,0,0,0-.76-.89.9.9,0,0,0-.84.89Z"/><path class="c" d="M230.58,283.44v5c0,.48,0,1,0,1.29h-1.21l-.06-.64h0a1.51,1.51,0,0,1-1.36.74,2,2,0,0,1-1.86-2.23,2.05,2.05,0,0,1,1.95-2.31,1.31,1.31,0,0,1,1.15.49h0v-2.36Zm-1.35,3.81a1.79,1.79,0,0,0,0-.24.81.81,0,0,0-.79-.67c-.62,0-.94.55-.94,1.23s.37,1.21.93,1.21a.79.79,0,0,0,.78-.65,1.08,1.08,0,0,0,0-.32Z"/><path class="c" d="M235.76,288.36c0,.57,0,1,0,1.39h-1.17l-.07-.61h0a1.55,1.55,0,0,1-1.36.71c-.89,0-1.54-.55-1.54-1.89V285.4H233v2.34c0,.64.2,1,.67,1a.73.73,0,0,0,.68-.47.91.91,0,0,0,0-.3V285.4h1.36Z"/><path class="c" d="M236.85,283.44h1.35v6.31h-1.35Z"/><path class="c" d="M240.33,288c0,.56.6.83,1.23.83a3.69,3.69,0,0,0,1.2-.18l.18.92a4.45,4.45,0,0,1-1.57.26,2.09,2.09,0,0,1-2.33-2.21,2.18,2.18,0,0,1,2.2-2.32,1.93,1.93,0,0,1,1.94,2.17,4.61,4.61,0,0,1,0,.53Zm1.6-.92a.8.8,0,0,0-.77-.89.9.9,0,0,0-.84.89Z"/><path class="c" d="M244,288.57a2.64,2.64,0,0,0,1.16.33c.41,0,.58-.14.58-.36s-.13-.33-.64-.5c-.9-.31-1.24-.79-1.23-1.31,0-.81.69-1.42,1.77-1.42a3,3,0,0,1,1.22.24l-.24.94a2.07,2.07,0,0,0-.94-.25c-.33,0-.52.13-.52.36s.17.31.71.49c.83.29,1.17.71,1.18,1.35,0,.81-.64,1.4-1.89,1.4a3.06,3.06,0,0,1-1.4-.3Z"/><path class="c" d="M110.07,153.77a3.77,3.77,0,0,1-1.54.26,2.85,2.85,0,0,1-3.14-3,3.06,3.06,0,0,1,3.28-3.18,3.41,3.41,0,0,1,1.47.27l-.27,1.07a3.07,3.07,0,0,0-1.14-.22,2,2,0,0,0,0,3.94,3.59,3.59,0,0,0,1.13-.19Z"/><path class="c" d="M115,151.72a2.18,2.18,0,0,1-2.29,2.32,2.13,2.13,0,0,1-2.25-2.24,2.16,2.16,0,0,1,2.32-2.3A2.11,2.11,0,0,1,115,151.72Zm-3.15,0c0,.75.31,1.31.89,1.31s.87-.52.87-1.31-.25-1.3-.87-1.3S111.89,151.12,111.89,151.76Z"/><path class="c" d="M115.88,151c0-.54,0-1,0-1.39H117l.06.6h0a1.6,1.6,0,0,1,1.35-.69c.89,0,1.55.58,1.55,1.86v2.58h-1.35v-2.41c0-.56-.19-.94-.68-.94a.72.72,0,0,0-.69.51,1,1,0,0,0,0,.33v2.51h-1.35Z"/><path class="c" d="M125.31,147.63v5c0,.49,0,1,0,1.3h-1.2l-.06-.64h0a1.52,1.52,0,0,1-1.36.74,2,2,0,0,1-1.86-2.23,2.05,2.05,0,0,1,2-2.31,1.31,1.31,0,0,1,1.14.48h0v-2.35Zm-1.36,3.8a2.12,2.12,0,0,0,0-.24.81.81,0,0,0-.79-.66c-.61,0-.93.55-.93,1.23s.36,1.2.92,1.2a.79.79,0,0,0,.79-.64,1.58,1.58,0,0,0,0-.32Z"/><path class="c" d="M127.79,148.38a.68.68,0,0,1-.73.68.68.68,0,1,1,0-1.36A.68.68,0,0,1,127.79,148.38Zm-1.4,5.56v-4.35h1.35v4.35Z"/><path class="c" d="M130.34,148.35v1.24h1v1h-1v1.57c0,.53.12.77.53.77a2,2,0,0,0,.4,0v1a2.73,2.73,0,0,1-.88.11,1.39,1.39,0,0,1-1-.37,1.81,1.81,0,0,1-.38-1.29v-1.78h-.58v-1H129v-.94Z"/><path class="c" d="M133.49,148.38a.68.68,0,0,1-.73.68.68.68,0,1,1,0-1.36A.68.68,0,0,1,133.49,148.38Zm-1.4,5.56v-4.35h1.35v4.35Z"/><path class="c" d="M138.82,151.72a2.18,2.18,0,0,1-2.29,2.32,2.13,2.13,0,0,1-2.25-2.24,2.16,2.16,0,0,1,2.32-2.3A2.11,2.11,0,0,1,138.82,151.72Zm-3.15,0c0,.75.31,1.31.89,1.31s.87-.52.87-1.31-.25-1.3-.87-1.3S135.67,151.12,135.67,151.76Z"/><path class="c" d="M139.66,151c0-.54,0-1,0-1.39h1.18l.06.6h0a1.6,1.6,0,0,1,1.35-.69c.89,0,1.55.58,1.55,1.86v2.58h-1.35v-2.41c0-.56-.19-.94-.68-.94a.72.72,0,0,0-.69.51,1,1,0,0,0-.05.33v2.51h-1.35Z"/><path class="c" d="M146.27,148.38a.68.68,0,0,1-.73.68.68.68,0,1,1,0-1.36A.68.68,0,0,1,146.27,148.38Zm-1.4,5.56v-4.35h1.35v4.35Z"/><path class="c" d="M147.31,151c0-.54,0-1,0-1.39h1.17l.07.6h0a1.58,1.58,0,0,1,1.35-.69c.89,0,1.55.58,1.55,1.86v2.58h-1.35v-2.41c0-.56-.2-.94-.69-.94a.72.72,0,0,0-.68.51,1,1,0,0,0-.05.33v2.51h-1.35Z"/><path class="c" d="M156.67,149.59c0,.28,0,.64,0,1.29v2.43a2.5,2.5,0,0,1-.65,2,2.68,2.68,0,0,1-1.77.53,3.31,3.31,0,0,1-1.57-.34l.27-1a2.63,2.63,0,0,0,1.26.33,1,1,0,0,0,1.13-1.15v-.28h0a1.4,1.4,0,0,1-1.17.57,1.91,1.91,0,0,1-1.84-2.13,2.07,2.07,0,0,1,2-2.28,1.29,1.29,0,0,1,1.19.61h0l.05-.52Zm-1.39,1.77a2,2,0,0,0,0-.25.75.75,0,0,0-.73-.59c-.49,0-.89.44-.89,1.23s.32,1.16.89,1.16a.74.74,0,0,0,.71-.55,1.37,1.37,0,0,0,0-.36Z"/><path class="c" d="M187.63,153.94l-1.92-6h1.49l.73,2.53c.2.71.39,1.4.53,2.15h0c.15-.72.33-1.44.54-2.12l.76-2.56h1.44l-2,6Z"/><path class="c" d="M192.5,152.2c0,.56.59.83,1.22.83a3.93,3.93,0,0,0,1.2-.18l.18.92a4.45,4.45,0,0,1-1.57.26,2.08,2.08,0,0,1-2.32-2.21,2.17,2.17,0,0,1,2.19-2.32,1.93,1.93,0,0,1,1.94,2.17,3.07,3.07,0,0,1,0,.53Zm1.59-.93a.79.79,0,0,0-.77-.88.88.88,0,0,0-.83.88Z"/><path class="c" d="M196.15,151c0-.54,0-1,0-1.39h1.18l.06.6h0a1.58,1.58,0,0,1,1.34-.69c.89,0,1.56.58,1.56,1.86v2.58h-1.35v-2.41c0-.56-.2-.94-.69-.94a.71.71,0,0,0-.68.51.81.81,0,0,0-.06.33v2.51h-1.35Z"/><path class="c" d="M202.82,148.35v1.24h1v1h-1v1.57c0,.53.12.77.53.77a1.9,1.9,0,0,0,.4,0v1a2.64,2.64,0,0,1-.88.11,1.41,1.41,0,0,1-1-.37,1.81,1.81,0,0,1-.38-1.29v-1.78h-.57v-1h.57v-.94Z"/><path class="c" d="M206,148.38a.68.68,0,0,1-.73.68.68.68,0,1,1,0-1.36A.68.68,0,0,1,206,148.38Zm-1.4,5.56v-4.35h1.35v4.35Z"/><path class="c" d="M207,147.63h1.35v6.31H207Z"/><path class="c" d="M211.93,153.94l-.08-.43h0a1.6,1.6,0,0,1-1.25.53,1.33,1.33,0,0,1-1.4-1.33c0-1.13,1-1.68,2.55-1.67V151c0-.23-.12-.56-.79-.56a2.39,2.39,0,0,0-1.2.33l-.25-.87a3.58,3.58,0,0,1,1.69-.38,1.69,1.69,0,0,1,1.91,1.87v1.51a7.39,7.39,0,0,0,.06,1.06Zm-.16-2.05c-.72,0-1.27.16-1.27.68a.49.49,0,0,0,.54.52.74.74,0,0,0,.7-.5.85.85,0,0,0,0-.23Z"/><path class="c" d="M215.59,148.35v1.24h1v1h-1v1.57c0,.53.12.77.53.77a1.9,1.9,0,0,0,.4,0v1a2.73,2.73,0,0,1-.88.11,1.41,1.41,0,0,1-1-.37,1.81,1.81,0,0,1-.38-1.29v-1.78h-.57v-1h.57v-.94Z"/><path class="c" d="M218.74,148.38a.68.68,0,0,1-.73.68.68.68,0,1,1,0-1.36A.68.68,0,0,1,218.74,148.38Zm-1.4,5.56v-4.35h1.35v4.35Z"/><path class="c" d="M224.07,151.72a2.18,2.18,0,0,1-2.29,2.32,2.13,2.13,0,0,1-2.25-2.24,2.16,2.16,0,0,1,2.32-2.3A2.11,2.11,0,0,1,224.07,151.72Zm-3.14,0c0,.75.31,1.31.88,1.31s.87-.52.87-1.31-.25-1.3-.87-1.3S220.93,151.12,220.93,151.76Z"/><path class="c" d="M224.91,151c0-.54,0-1,0-1.39h1.18l.06.6h0a1.56,1.56,0,0,1,1.34-.69c.89,0,1.56.58,1.56,1.86v2.58h-1.36v-2.41c0-.56-.19-.94-.68-.94a.73.73,0,0,0-.69.51,1,1,0,0,0-.05.33v2.51h-1.35Z"/><path class="c" d="M257.9,148a12.12,12.12,0,0,1,1.84-.13,3.88,3.88,0,0,1,2.45.64,2.65,2.65,0,0,1,1,2.26,3,3,0,0,1-1,2.43,4.27,4.27,0,0,1-2.77.78,12.64,12.64,0,0,1-1.54-.09Zm1.37,4.89a2.18,2.18,0,0,0,.47,0,1.86,1.86,0,0,0,2-2.1,1.73,1.73,0,0,0-1.89-1.91,2.46,2.46,0,0,0-.61.06Z"/><path class="c" d="M268.35,151.72a2.18,2.18,0,0,1-2.3,2.32,2.13,2.13,0,0,1-2.25-2.24,2.17,2.17,0,0,1,2.32-2.3A2.11,2.11,0,0,1,268.35,151.72Zm-3.15,0c0,.75.31,1.31.89,1.31s.86-.52.86-1.31-.25-1.3-.86-1.3S265.2,151.12,265.2,151.76Z"/><path class="c" d="M269.18,151c0-.54,0-1,0-1.39h1.14l.07.59h0a1.5,1.5,0,0,1,1.32-.68,1.23,1.23,0,0,1,1.19.73h0a2,2,0,0,1,.56-.52,1.6,1.6,0,0,1,.83-.21c.83,0,1.47.58,1.47,1.88v2.56h-1.32v-2.36c0-.63-.21-1-.64-1a.65.65,0,0,0-.62.47,1,1,0,0,0-.06.35v2.54h-1.31v-2.43c0-.56-.2-.93-.63-.93a.7.7,0,0,0-.63.49,1,1,0,0,0-.05.34v2.53h-1.32Z"/><path class="c" d="M277.87,152.2c0,.56.6.83,1.23.83a4,4,0,0,0,1.2-.18l.18.92a4.51,4.51,0,0,1-1.58.26,2.08,2.08,0,0,1-2.32-2.21,2.17,2.17,0,0,1,2.2-2.32,1.93,1.93,0,0,1,1.94,2.17,2.85,2.85,0,0,1-.05.53Zm1.59-.93a.79.79,0,0,0-.76-.88.9.9,0,0,0-.84.88Z"/><path class="c" d="M281.52,152.76a2.6,2.6,0,0,0,1.16.33c.41,0,.58-.14.58-.37s-.14-.32-.64-.49c-.9-.31-1.25-.8-1.24-1.31,0-.81.69-1.42,1.77-1.42a3,3,0,0,1,1.23.24l-.24.94a2.11,2.11,0,0,0-.94-.25c-.33,0-.52.13-.52.35s.17.32.7.5c.83.29,1.18.71,1.19,1.35,0,.81-.64,1.4-1.89,1.4a3.08,3.08,0,0,1-1.41-.3Z"/><path class="c" d="M286.89,148.35v1.24h1v1h-1v1.57c0,.53.13.77.54.77a2,2,0,0,0,.4,0v1a2.73,2.73,0,0,1-.88.11,1.43,1.43,0,0,1-1-.37,1.81,1.81,0,0,1-.37-1.29v-1.78H285v-1h.58v-.94Z"/><path class="c" d="M290,148.38a.68.68,0,0,1-.73.68.68.68,0,1,1,0-1.36A.67.67,0,0,1,290,148.38Zm-1.39,5.56v-4.35H290v4.35Z"/><path class="c" d="M294.35,153.84a3.5,3.5,0,0,1-1.21.19,2.11,2.11,0,0,1-2.31-2.22,2.27,2.27,0,0,1,2.49-2.31,3.39,3.39,0,0,1,1,.16l-.22,1a1.87,1.87,0,0,0-.75-.13,1.22,1.22,0,0,0,0,2.43,2.15,2.15,0,0,0,.78-.13Z"/><path class="c" d="M298.3,148v2.3h2.23V148h1.35v6h-1.35v-2.51H298.3v2.51h-1.37v-6Z"/><path class="c" d="M307.29,151.72A2.18,2.18,0,0,1,305,154a2.13,2.13,0,0,1-2.25-2.24,2.17,2.17,0,0,1,2.32-2.3A2.11,2.11,0,0,1,307.29,151.72Zm-3.15,0c0,.75.31,1.31.89,1.31s.86-.52.86-1.31-.25-1.3-.86-1.3S304.14,151.12,304.14,151.76Z"/><path class="c" d="M309.63,148.35v1.24h1v1h-1v1.57c0,.53.13.77.54.77a2,2,0,0,0,.4,0v1a2.73,2.73,0,0,1-.88.11,1.42,1.42,0,0,1-1-.37,1.81,1.81,0,0,1-.37-1.29v-1.78h-.58v-1h.58v-.94Z"/><path class="c" d="M273.92,164.61l-1.43-6h1.45l.46,2.47c.13.71.25,1.49.35,2.09h0c.1-.65.24-1.37.39-2.11l.51-2.45h1.44l.48,2.53c.13.7.23,1.34.32,2h0c.09-.67.22-1.37.35-2.09l.49-2.45h1.37l-1.54,6h-1.47l-.51-2.58c-.11-.6-.21-1.16-.28-1.85h0c-.11.68-.21,1.25-.35,1.85l-.57,2.58Z"/><path class="c" d="M282.9,164.61l-.08-.43h0a1.55,1.55,0,0,1-1.24.53,1.34,1.34,0,0,1-1.41-1.33c0-1.13,1-1.67,2.55-1.67v-.06c0-.23-.12-.56-.79-.56a2.45,2.45,0,0,0-1.2.33l-.25-.87a3.61,3.61,0,0,1,1.69-.38,1.69,1.69,0,0,1,1.92,1.87v1.52a6.11,6.11,0,0,0,.06,1.05Zm-.16-2.05c-.71,0-1.26.16-1.26.68a.49.49,0,0,0,.53.52.73.73,0,0,0,.7-.5.85.85,0,0,0,0-.23Z"/><path class="c" d="M286.56,159v1.24h1v1h-1v1.58c0,.52.13.76.54.76a2,2,0,0,0,.4,0v1a2.76,2.76,0,0,1-.89.11,1.41,1.41,0,0,1-1-.37,1.81,1.81,0,0,1-.37-1.29v-1.78h-.58v-1h.58v-.94Z"/><path class="c" d="M289.31,162.87c0,.56.6.83,1.23.83a3.74,3.74,0,0,0,1.2-.18l.18.92a4.51,4.51,0,0,1-1.58.26,2.08,2.08,0,0,1-2.32-2.21,2.18,2.18,0,0,1,2.2-2.32,1.93,1.93,0,0,1,1.94,2.17,2.85,2.85,0,0,1-.05.53Zm1.59-.92a.78.78,0,0,0-.76-.88.89.89,0,0,0-.84.88Z"/><path class="c" d="M293,161.7c0-.64,0-1.06,0-1.44h1.16l.05.81h0a1.28,1.28,0,0,1,1.18-.9h.28v1.28a1.71,1.71,0,0,0-.36,0,.88.88,0,0,0-.93.69,1.42,1.42,0,0,0,0,.3v2.2H293Z"/><rect class="e" x="421.3" y="85.34" width="60.98" height="82.45" rx="4.31"/><path class="c" d="M478,85.34h-4v.75h4v-.75Zm-8,0h-4v.75h4v-.75Zm-8,0h-4v.75h4v-.75Zm-8,0h-4v.75h4v-.75Zm-8,0h-4v.75h4v-.75Zm-8,0h-4v.75h4v-.75Zm-8,0h-4v.75h4v-.75Zm-7.58,1.45c-.11.13-.21.25-.31.39h0l0,0h-.15v0h0l0,0h0a4.4,4.4,0,0,0-.39,1h0l0,.06h0l0,0h0v0h0v0h0v0h0v0h0v0h0v0h0v.87h.75v-.87a3.55,3.55,0,0,1,.9-2.37l-.56-.5Zm-.34,7.74h-.75v4h.75v-4Zm0,8h-.75v4h.75v-4Zm0,8h-.75v4h.75v-4Zm0,8h-.75v4h.75v-4Zm0,8h-.75v4h.75v-4Zm0,8h-.75v4h.75v-4Zm0,8h-.75v4h.75v-4Zm0,8h-.75v4h.75v-4Zm0,8h-.75v4h.75v-4Zm.86,7.26-.57.49a4.25,4.25,0,0,0,.57.55h.36l0,0h0a4.41,4.41,0,0,0,1.71.63h.89V167h-.27a3.57,3.57,0,0,1-2.71-1.25Zm11,1.25h-4v.75h4V167Zm8,0h-4v.75h4V167Zm8,0h-4v.75h4V167Zm8,0h-4v.75h4V167Zm8,0h-4v.75h4V167Zm8,0h-4v.75h4V167Zm6.89-1.38A3.52,3.52,0,0,1,478,167h-.08v.75h1.58l0,0h0a4.26,4.26,0,0,0,1.86-1.38l-.59-.46Zm1.5-7.33h-.75v4h.75v-4Zm0-8h-.75v4h.75v-4Zm0-8h-.75v4h.75v-4Zm0-8h-.75v4h.75v-4Zm0-8h-.75v4h.75v-4Zm0-8h-.75v4h.75v-4Zm0-8h-.75v4h.75v-4Zm0-8h-.75v4h.75v-4Zm0-8h-.75v4h.75v-4Zm-1.22-7.68-.54.52a3.55,3.55,0,0,1,1,2.49v.67h.75v-.67h0v0h0s0-.06,0-.09h-.06s0-.11,0-.16h-.05A2,2,0,0,0,482,88h0v0h0a1.59,1.59,0,0,0-.12-.27h0v0h0v0h0l-.09-.16h-.14v0h-.16a3.31,3.31,0,0,0-.3-.34Z"/><path class="c" d="M424.93,118.05a2.64,2.64,0,0,0,1.38.39c.8,0,1.26-.41,1.26-1s-.32-.88-1.13-1.19c-1-.35-1.59-.85-1.59-1.7a1.73,1.73,0,0,1,1.94-1.63,2.74,2.74,0,0,1,1.33.3l-.21.63a2.37,2.37,0,0,0-1.14-.29c-.82,0-1.13.49-1.13.9,0,.56.36.84,1.19,1.16,1,.39,1.53.88,1.53,1.76s-.68,1.73-2.1,1.73a3,3,0,0,1-1.53-.39Z"/><path class="c" d="M429.39,112.68h.78v2.69h0a1.41,1.41,0,0,1,.56-.55,1.56,1.56,0,0,1,.8-.23c.58,0,1.51.36,1.51,1.84V119h-.79v-2.48c0-.69-.25-1.28-1-1.28a1.12,1.12,0,0,0-1,.79.82.82,0,0,0-.06.37V119h-.78Z"/><path class="c" d="M436.71,119l-.06-.55h0a1.6,1.6,0,0,1-1.32.64,1.22,1.22,0,0,1-1.31-1.23c0-1,.92-1.61,2.59-1.6v-.09a.89.89,0,0,0-1-1,2.19,2.19,0,0,0-1.12.32l-.18-.51a2.57,2.57,0,0,1,1.41-.39c1.32,0,1.64.9,1.64,1.76V118a6.54,6.54,0,0,0,.07,1Zm-.12-2.2c-.85,0-1.82.13-1.82,1a.69.69,0,0,0,.74.75,1.07,1.07,0,0,0,1-.72.73.73,0,0,0,0-.25Z"/><path class="c" d="M442.33,112.68v5.2c0,.39,0,.82,0,1.12h-.71l0-.75h0a1.58,1.58,0,0,1-1.47.84,2,2,0,0,1-1.84-2.18,2.06,2.06,0,0,1,1.93-2.32,1.44,1.44,0,0,1,1.3.66h0v-2.57Zm-.78,3.76a1.29,1.29,0,0,0,0-.33,1.15,1.15,0,0,0-1.13-.9c-.81,0-1.29.71-1.29,1.66s.43,1.59,1.27,1.59a1.17,1.17,0,0,0,1.15-.93,1.22,1.22,0,0,0,0-.34Z"/><path class="c" d="M444.5,113.48a.49.49,0,0,1-1,0A.48.48,0,0,1,444,113,.47.47,0,0,1,444.5,113.48Zm-.87,5.52v-4.31h.78V119Z"/><path class="c" d="M445.71,115.86c0-.45,0-.81,0-1.17h.7l0,.71h0a1.57,1.57,0,0,1,1.42-.81c.6,0,1.52.36,1.52,1.84V119h-.78v-2.49c0-.69-.26-1.27-1-1.27a1.11,1.11,0,0,0-1,.8,1,1,0,0,0-.06.37V119h-.78Z"/><path class="c" d="M454.35,114.69c0,.31,0,.66,0,1.18v2.5a2.47,2.47,0,0,1-.62,2,2.27,2.27,0,0,1-1.56.52,2.76,2.76,0,0,1-1.43-.36l.19-.6a2.43,2.43,0,0,0,1.27.34c.8,0,1.38-.42,1.38-1.5v-.48h0a1.55,1.55,0,0,1-1.37.72,1.93,1.93,0,0,1-1.84-2.1,2.07,2.07,0,0,1,1.94-2.29,1.44,1.44,0,0,1,1.35.75h0l0-.65Zm-.81,1.7a1,1,0,0,0,0-.36,1.13,1.13,0,0,0-1.09-.82c-.75,0-1.29.63-1.29,1.62s.43,1.55,1.28,1.55a1.14,1.14,0,0,0,1.08-.8,1.19,1.19,0,0,0,.06-.42Z"/><path class="c" d="M429.22,129.47a3.82,3.82,0,0,1-1.58.29,2.8,2.8,0,0,1-3-3,3,3,0,0,1,3.13-3.15,3.11,3.11,0,0,1,1.42.27l-.19.63a2.82,2.82,0,0,0-1.2-.25,2.23,2.23,0,0,0-2.34,2.48,2.18,2.18,0,0,0,2.3,2.41,3.1,3.1,0,0,0,1.26-.25Z"/><path class="c" d="M434,127.48a2.11,2.11,0,0,1-2.14,2.29,2.05,2.05,0,0,1-2.07-2.22,2.11,2.11,0,0,1,2.14-2.29A2,2,0,0,1,434,127.48Zm-3.41,0c0,1,.54,1.66,1.3,1.66s1.31-.7,1.31-1.67c0-.73-.36-1.66-1.29-1.66S430.55,126.71,430.55,127.52Z"/><path class="c" d="M435,126.53c0-.45,0-.81,0-1.17h.7l0,.71h0a1.57,1.57,0,0,1,1.42-.81c.6,0,1.52.36,1.52,1.84v2.57h-.78v-2.48c0-.7-.26-1.28-1-1.28a1.13,1.13,0,0,0-1.05.8,1.38,1.38,0,0,0,0,.37v2.59H435Z"/><path class="c" d="M439.78,128.87a2.06,2.06,0,0,0,1,.31c.57,0,.83-.29.83-.64s-.22-.58-.79-.79c-.78-.28-1.14-.71-1.14-1.22a1.33,1.33,0,0,1,1.48-1.27,2.17,2.17,0,0,1,1.06.27l-.2.57a1.62,1.62,0,0,0-.88-.25c-.46,0-.72.27-.72.59s.26.51.82.73c.75.28,1.13.66,1.13,1.3s-.59,1.29-1.61,1.29a2.43,2.43,0,0,1-1.21-.3Z"/><path class="c" d="M444.35,124.13v1.23h1.12v.6h-1.12v2.32c0,.53.15.84.59.84a1.57,1.57,0,0,0,.45-.06l0,.59a2,2,0,0,1-.7.11,1.08,1.08,0,0,1-.84-.33,1.56,1.56,0,0,1-.31-1.12V126h-.66v-.6h.66v-1Z"/><path class="c" d="M446.35,126.71c0-.51,0-.95,0-1.35H447l0,.85h0a1.3,1.3,0,0,1,1.19-.95.73.73,0,0,1,.22,0V126a1,1,0,0,0-.26,0,1.1,1.1,0,0,0-1,1,1.88,1.88,0,0,0,0,.36v2.3h-.77Z"/><path class="c" d="M452.86,128.49c0,.45,0,.84,0,1.18h-.69l0-.7h0a1.64,1.64,0,0,1-1.42.8c-.68,0-1.49-.38-1.49-1.89v-2.52H450v2.39c0,.81.25,1.37,1,1.37a1.15,1.15,0,0,0,1-.72,1.19,1.19,0,0,0,.07-.4v-2.64h.78Z"/><path class="c" d="M457.22,129.51a2.92,2.92,0,0,1-1.23.25,2,2,0,0,1-2.14-2.2,2.18,2.18,0,0,1,2.31-2.29,2.52,2.52,0,0,1,1.08.23l-.17.6a1.8,1.8,0,0,0-.91-.2,1.62,1.62,0,0,0,0,3.23,2.17,2.17,0,0,0,1-.21Z"/><path class="c" d="M459.2,124.13v1.23h1.12v.6H459.2v2.32c0,.53.15.84.59.84a1.57,1.57,0,0,0,.45-.06l0,.59a1.94,1.94,0,0,1-.69.11,1.08,1.08,0,0,1-.84-.33,1.56,1.56,0,0,1-.31-1.12V126h-.66v-.6h.66v-1Z"/><path class="c" d="M462.07,124.15a.49.49,0,0,1-1,0,.48.48,0,0,1,.49-.49A.47.47,0,0,1,462.07,124.15Zm-.87,5.52v-4.31H462v4.31Z"/><path class="c" d="M467.18,127.48a2.11,2.11,0,0,1-2.15,2.29,2.05,2.05,0,0,1-2.06-2.22,2.1,2.1,0,0,1,2.13-2.29A2,2,0,0,1,467.18,127.48Zm-3.42,0c0,1,.54,1.66,1.31,1.66s1.31-.7,1.31-1.67c0-.73-.37-1.66-1.29-1.66S463.76,126.71,463.76,127.52Z"/><path class="c" d="M468.16,126.53c0-.45,0-.81,0-1.17h.69l0,.71h0a1.59,1.59,0,0,1,1.43-.81c.59,0,1.52.36,1.52,1.84v2.57H471v-2.48c0-.7-.25-1.28-1-1.28a1.11,1.11,0,0,0-1.05.8,1.06,1.06,0,0,0-.06.37v2.59h-.78Z"/><path class="f" d="M352.11,47c.44,45.51,100.32-41.38,100.32,33.25"/><path class="c" d="M350.7,47a1.41,1.41,0,1,1,1.43,1.4A1.42,1.42,0,0,1,350.7,47Z"/><polygon class="c" points="451.34 79.52 452.43 83.58 453.52 79.52 451.34 79.52"/><path class="g" d="M451.73,174.84C450.52,190,430,251.15,345.34,251.15c-76.42,0-108.1,8-114.87,15.14"/><path class="c" d="M450.27,174.8a1.41,1.41,0,0,1,2.82.22,1.41,1.41,0,0,1-2.82-.22Z"/><polygon class="c" points="229.96 265.18 229.03 269.29 231.89 266.2 229.96 265.18"/><line class="g" x1="451.72" y1="175.01" x2="451.94" y2="266.13"/><path class="c" d="M450.31,175.08a1.41,1.41,0,1,1,1.41,1.41A1.41,1.41,0,0,1,450.31,175.08Z"/><polygon class="c" points="450.85 265.39 451.95 269.45 453.03 265.39 450.85 265.39"/><rect class="e" x="421.38" y="273.8" width="60.98" height="77.63" rx="4.31"/><path class="c" d="M478.05,273.8h-4v.75h4v-.75Zm-8,0h-4v.75h4v-.75Zm-8,0h-4v.75h4v-.75Zm-8,0h-4v.75h4v-.75Zm-8,0h-4v.75h4v-.75Zm-8,0h-4v.75h4v-.75Zm-8,0h-4v.75h4v-.75Zm-7.58,1.45,0,0h0l-.05,0h0l-.05.05h0l0,.06h0l0,0h0l0,0h0l0,.06h0l0,.05h0l0,.06h0l0,.05h0l0,.05h0l0,.07h0l0,0h0l-.07.13h0l0,.06h0l0,.07h0l0,.06h0l0,.05h0l0,.05h0l0,0h0v0h0l0,.05h0v.05h0l0,0h0v0h0v0h0v0h0v0h0v0h0v0h0v0h-.06V279h.75v-.87a3.54,3.54,0,0,1,.9-2.36l-.56-.5Zm-.34,7.73h-.75v4h.75v-4Zm0,8h-.75v4h.75v-4Zm0,8h-.75v4h.75v-4Zm0,8h-.75v4h.75v-4Zm0,8h-.75v4h.75v-4Zm0,8h-.75v4h.75v-4Zm0,8h-.75v4h.75v-4Zm0,8h-.75v4h.75v-4Zm0,8h-.75v.13h0v0H422v0h0v0h0l0,0h0v0h0v0h0a4,4,0,0,0,.95,1.05l.46-.58a3.56,3.56,0,0,1-1.34-2.79V347Zm8.66,3.69h-4v.75h4v-.75Zm8,0h-4v.75h4v-.75Zm8,0h-4v.75h4v-.75Zm8,0h-4v.75h4v-.75Zm8,0h-4v.75h4v-.75Zm8,0h-4v.75h4v-.75Zm7.87-.05a3.14,3.14,0,0,1-.61.05h-3.26v.75h3.62l.38-.05-.13-.74Zm3.7-5.47h-.75v2a3.49,3.49,0,0,1-.39,1.62l.67.34h.47v-2Zm0-8h-.75v4h.75v-4Zm0-8h-.75v4h.75v-4Zm0-8h-.75v4h.75v-4Zm0-8h-.75v4h.75v-4Zm0-8h-.75v4h.75v-4Zm0-8h-.75v4h.75v-4Zm0-8h-.75v4h.75v-4Zm0-8h-.75v4h.75v-4Zm-2.55-7-.31.69a3.54,3.54,0,0,1,2,2.46l.74-.17a5.79,5.79,0,0,0-.27-.8h0l0,0h-.46v0h0v0h0l0,0h0a4.28,4.28,0,0,0-1.61-1.25Z"/><path class="c" d="M426.09,314.66h-1.82V314h4.44v.66h-1.84V320h-.78Z"/><path class="c" d="M429.28,313.68h.79v2.69h0a1.45,1.45,0,0,1,.55-.55,1.59,1.59,0,0,1,.81-.23c.57,0,1.5.36,1.5,1.85V320h-.78v-2.47c0-.7-.26-1.29-1-1.29a1.12,1.12,0,0,0-1.05.79,1,1,0,0,0-.05.37V320h-.79Z"/><path class="c" d="M434.66,318a1.37,1.37,0,0,0,1.47,1.49,2.89,2.89,0,0,0,1.19-.22l.14.56a3.58,3.58,0,0,1-1.43.27,2,2,0,0,1-2.12-2.17,2.09,2.09,0,0,1,2-2.33,1.83,1.83,0,0,1,1.78,2,2.73,2.73,0,0,1,0,.37Zm2.29-.56a1.11,1.11,0,0,0-1.08-1.27,1.3,1.3,0,0,0-1.21,1.27Z"/><path class="c" d="M438.68,317c0-.51,0-1,0-1.35h.68l0,.85h0a1.28,1.28,0,0,1,1.19-1,.73.73,0,0,1,.22,0v.74a1.06,1.06,0,0,0-.27,0,1.1,1.1,0,0,0-1,1c0,.11,0,.23,0,.36V320h-.77Z"/><path class="c" d="M441.62,316.86c0-.45,0-.81,0-1.17h.69l0,.7h0a1.49,1.49,0,0,1,1.35-.8,1.28,1.28,0,0,1,1.22.87h0a1.67,1.67,0,0,1,.48-.56,1.45,1.45,0,0,1,1-.31c.57,0,1.42.38,1.42,1.87V320H447v-2.44c0-.83-.3-1.32-.93-1.32a1,1,0,0,0-.93.71,1.45,1.45,0,0,0-.06.39V320h-.77v-2.58c0-.69-.3-1.18-.89-1.18a1.06,1.06,0,0,0-1,.78,1,1,0,0,0-.07.38V320h-.76Z"/><path class="c" d="M451.42,320l-.06-.54h0a1.62,1.62,0,0,1-1.32.64,1.23,1.23,0,0,1-1.31-1.24c0-1,.92-1.61,2.59-1.6v-.09a.89.89,0,0,0-1-1,2.19,2.19,0,0,0-1.12.32L449,316a2.66,2.66,0,0,1,1.41-.39c1.32,0,1.64.9,1.64,1.77V319a6.5,6.5,0,0,0,.07,1Zm-.12-2.2c-.85,0-1.82.13-1.82,1a.69.69,0,0,0,.74.75,1.08,1.08,0,0,0,1-.72.73.73,0,0,0,0-.25Z"/><path class="c" d="M453.32,313.68h.78V320h-.78Z"/><path class="c" d="M459.69,320l-.06-.54h0a1.62,1.62,0,0,1-1.32.64,1.23,1.23,0,0,1-1.31-1.24c0-1,.92-1.61,2.59-1.6v-.09a.89.89,0,0,0-1-1,2.19,2.19,0,0,0-1.12.32l-.18-.51a2.66,2.66,0,0,1,1.41-.39c1.32,0,1.64.9,1.64,1.77V319a6.5,6.5,0,0,0,.07,1Zm-.12-2.2c-.85,0-1.82.13-1.82,1a.69.69,0,0,0,.74.75,1.08,1.08,0,0,0,1-.72.73.73,0,0,0,0-.25Z"/><path class="c" d="M461.59,316.86c0-.45,0-.81,0-1.17h.69l0,.71h0a1.59,1.59,0,0,1,1.42-.81c.6,0,1.53.36,1.53,1.84V320h-.79v-2.48c0-.7-.25-1.28-1-1.28a1.11,1.11,0,0,0-1.05.81,1,1,0,0,0-.06.36V320h-.78Z"/><path class="c" d="M470.24,313.68v5.21c0,.38,0,.81,0,1.11h-.7l0-.75h0a1.59,1.59,0,0,1-1.46.85,2,2,0,0,1-1.84-2.19,2.07,2.07,0,0,1,1.93-2.32,1.44,1.44,0,0,1,1.29.66h0v-2.57Zm-.78,3.77a1.76,1.76,0,0,0,0-.33,1.16,1.16,0,0,0-1.13-.91c-.81,0-1.29.71-1.29,1.66s.42,1.59,1.27,1.59a1.18,1.18,0,0,0,1.15-.93,1.79,1.79,0,0,0,0-.34Z"/><path class="c" d="M428.82,328.48a2.11,2.11,0,0,1-2.14,2.29,2.05,2.05,0,0,1-2.07-2.22,2.1,2.1,0,0,1,2.14-2.28A2,2,0,0,1,428.82,328.48Zm-3.41,0c0,.94.54,1.65,1.3,1.65s1.31-.7,1.31-1.67c0-.73-.36-1.66-1.29-1.66S425.41,327.71,425.41,328.53Z"/><path class="c" d="M429.81,327.77c0-.55,0-1,0-1.41h.71l0,.74h0a1.7,1.7,0,0,1,1.53-.83,2,2,0,0,1,1.82,2.19,2,2,0,0,1-1.95,2.31,1.52,1.52,0,0,1-1.33-.68h0v2.34h-.77Zm.77,1.15a1.65,1.65,0,0,0,0,.32,1.2,1.2,0,0,0,1.17.91c.83,0,1.31-.67,1.31-1.66s-.45-1.6-1.28-1.6a1.25,1.25,0,0,0-1.18,1,1.13,1.13,0,0,0-.06.32Z"/><path class="c" d="M435.81,325.13v1.23h1.12v.6h-1.12v2.32c0,.54.15.84.59.84a2.16,2.16,0,0,0,.45-.05l0,.58a1.76,1.76,0,0,1-.7.11,1.1,1.1,0,0,1-.84-.33,1.6,1.6,0,0,1-.3-1.12V327h-.67v-.6h.67v-1Z"/><path class="c" d="M438.68,325.15a.45.45,0,0,1-.49.48.47.47,0,0,1-.48-.48.48.48,0,0,1,.49-.48A.46.46,0,0,1,438.68,325.15Zm-.87,5.52v-4.31h.79v4.31Z"/><path class="c" d="M443,330.51a2.81,2.81,0,0,1-1.23.25,2.05,2.05,0,0,1-2.15-2.2,2.19,2.19,0,0,1,2.31-2.28,2.56,2.56,0,0,1,1.09.22l-.18.6a1.88,1.88,0,0,0-.91-.2,1.62,1.62,0,0,0,0,3.24,2.19,2.19,0,0,0,1-.22Z"/><path class="c" d="M446.26,330.67l-.06-.54h0a1.59,1.59,0,0,1-1.31.64,1.23,1.23,0,0,1-1.32-1.24c0-1,.92-1.61,2.59-1.6v-.09a.89.89,0,0,0-1-1,2.1,2.1,0,0,0-1.12.33l-.18-.52a2.7,2.7,0,0,1,1.42-.38c1.31,0,1.63.9,1.63,1.76v1.61a6.41,6.41,0,0,0,.07,1Zm-.11-2.2c-.86,0-1.83.14-1.83,1a.69.69,0,0,0,.74.75,1.07,1.07,0,0,0,1-.72.74.74,0,0,0,0-.25Z"/><path class="c" d="M448.16,324.35H449v6.32h-.79Z"/><path class="c" d="M424.93,338.44c0-.55,0-1,0-1.4h.7l0,.73h0a1.69,1.69,0,0,1,1.53-.83,2,2,0,0,1,1.82,2.19,2,2,0,0,1-2,2.31,1.5,1.5,0,0,1-1.32-.68h0v2.34h-.77Zm.77,1.15a1.55,1.55,0,0,0,0,.32,1.21,1.21,0,0,0,1.17.92c.83,0,1.31-.68,1.31-1.67s-.46-1.6-1.28-1.6a1.25,1.25,0,0,0-1.19,1,1.64,1.64,0,0,0-.05.32Z"/><path class="c" d="M430,338.38c0-.51,0-.94,0-1.34h.69l0,.84h0a1.28,1.28,0,0,1,1.19-.94.73.73,0,0,1,.22,0v.73l-.26,0a1.08,1.08,0,0,0-1.05,1,2,2,0,0,0,0,.37v2.29H430Z"/><path class="c" d="M436.7,339.15a2.1,2.1,0,0,1-2.14,2.29,2,2,0,0,1-2.07-2.22,2.1,2.1,0,0,1,2.14-2.28A2,2,0,0,1,436.7,339.15Zm-3.41.05c0,.94.54,1.65,1.3,1.65s1.31-.7,1.31-1.67c0-.73-.36-1.65-1.29-1.65S433.29,338.38,433.29,339.2Z"/><path class="c" d="M437.69,338.44c0-.55,0-1,0-1.4h.7l0,.73h0a1.7,1.7,0,0,1,1.53-.83,2,2,0,0,1,1.82,2.19,2,2,0,0,1-1.95,2.31,1.52,1.52,0,0,1-1.33-.68h0v2.34h-.77Zm.77,1.15a1.55,1.55,0,0,0,0,.32,1.21,1.21,0,0,0,1.17.92c.83,0,1.31-.68,1.31-1.67s-.45-1.6-1.28-1.6a1.24,1.24,0,0,0-1.18,1,1.13,1.13,0,0,0-.06.32Z"/><path class="c" d="M443.18,339.33a1.39,1.39,0,0,0,1.48,1.5,2.71,2.71,0,0,0,1.19-.23l.14.56a3.43,3.43,0,0,1-1.44.27,2,2,0,0,1-2.11-2.17,2.09,2.09,0,0,1,2-2.32,1.82,1.82,0,0,1,1.77,2,2.93,2.93,0,0,1,0,.36Zm2.3-.56a1.12,1.12,0,0,0-1.09-1.27,1.3,1.3,0,0,0-1.2,1.27Z"/><path class="c" d="M447.2,338.38c0-.51,0-.94,0-1.34h.68l0,.84h0a1.29,1.29,0,0,1,1.2-.94.73.73,0,0,1,.22,0v.73l-.27,0a1.09,1.09,0,0,0-1.05,1,2.05,2.05,0,0,0,0,.37v2.29h-.78Z"/><path class="c" d="M451.27,335.8V337h1.12v.59h-1.12V340c0,.54.15.84.58.84a2.18,2.18,0,0,0,.46-.05l0,.58a1.73,1.73,0,0,1-.69.11,1.07,1.07,0,0,1-.85-.33,1.6,1.6,0,0,1-.3-1.12v-2.35h-.67V337h.67v-1Z"/><path class="c" d="M454.14,335.83a.49.49,0,0,1-1,0,.47.47,0,0,1,.49-.49A.46.46,0,0,1,454.14,335.83Zm-.87,5.51V337h.78v4.3Z"/><path class="c" d="M455.78,339.33a1.39,1.39,0,0,0,1.48,1.5,2.71,2.71,0,0,0,1.19-.23l.14.56a3.43,3.43,0,0,1-1.44.27,2,2,0,0,1-2.11-2.17,2.09,2.09,0,0,1,2-2.32,1.83,1.83,0,0,1,1.78,2,2.55,2.55,0,0,1,0,.36Zm2.3-.56A1.12,1.12,0,0,0,457,337.5a1.3,1.3,0,0,0-1.2,1.27Z"/><path class="c" d="M459.7,340.54a2.06,2.06,0,0,0,1,.31c.57,0,.83-.28.83-.64s-.22-.58-.8-.79c-.77-.28-1.13-.7-1.13-1.22a1.33,1.33,0,0,1,1.48-1.26,2.06,2.06,0,0,1,1.06.27l-.2.56a1.72,1.72,0,0,0-.88-.24c-.46,0-.72.26-.72.58s.26.52.82.73c.75.29,1.13.66,1.13,1.3s-.59,1.29-1.61,1.29a2.43,2.43,0,0,1-1.21-.29Z"/><path class="c" d="M442.34,289.66a6.79,6.79,0,0,1-2,.34,3.37,3.37,0,0,1-2.44-.81,2.91,2.91,0,0,1-.84-2.18,3.09,3.09,0,0,1,3.42-3.13,4.22,4.22,0,0,1,1.67.29l-.29,1.09a3.37,3.37,0,0,0-1.4-.26,2,2,0,1,0,.57,3.82v-1.26h-.92V286.5h2.23Z"/><path class="c" d="M443.38,283.62h1.35v6.32h-1.35Z"/><path class="c" d="M448.3,289.94l-.08-.44h0A1.55,1.55,0,0,1,447,290a1.34,1.34,0,0,1-1.41-1.34c0-1.13,1-1.67,2.55-1.66V287c0-.24-.12-.56-.79-.56a2.56,2.56,0,0,0-1.2.32l-.25-.87a3.58,3.58,0,0,1,1.69-.38,1.7,1.7,0,0,1,1.92,1.88v1.51a6.17,6.17,0,0,0,.06,1.06Zm-.16-2.06c-.71,0-1.26.16-1.26.69a.48.48,0,0,0,.53.51.73.73,0,0,0,.7-.49,1,1,0,0,0,0-.24Z"/><path class="c" d="M450.17,289.16l1.37-1.71c.25-.3.45-.51.7-.78h-1.91v-1.07h3.55v.81l-1.3,1.64a9.45,9.45,0,0,1-.72.8v0H454v1.08h-3.78Z"/><path class="c" d="M456.09,284.38a.68.68,0,0,1-.73.67.65.65,0,0,1-.7-.67.66.66,0,0,1,.71-.69A.69.69,0,0,1,456.09,284.38Zm-1.4,5.56v-4.35H456v4.35Z"/><path class="c" d="M457.13,287c0-.55,0-1,0-1.39h1.18l.06.59h0a1.59,1.59,0,0,1,1.34-.69c.89,0,1.56.59,1.56,1.87v2.58H459.9v-2.41c0-.56-.19-.95-.68-.95a.73.73,0,0,0-.69.51,1.06,1.06,0,0,0,0,.34v2.51h-1.35Z"/><path class="c" d="M466.49,285.59c0,.27,0,.64,0,1.29v2.43a2.48,2.48,0,0,1-.66,1.95,2.68,2.68,0,0,1-1.77.54,3.46,3.46,0,0,1-1.57-.34l.27-1a2.71,2.71,0,0,0,1.26.32,1,1,0,0,0,1.13-1.14v-.29h0a1.39,1.39,0,0,1-1.18.57,1.91,1.91,0,0,1-1.84-2.12,2.08,2.08,0,0,1,2-2.29,1.32,1.32,0,0,1,1.19.61h0l0-.51Zm-1.38,1.77a1,1,0,0,0,0-.25.75.75,0,0,0-.73-.6c-.49,0-.89.45-.89,1.24s.32,1.16.89,1.16a.74.74,0,0,0,.71-.56,1,1,0,0,0,.05-.35Z"/><path class="c" d="M439.08,298.31c0-.72-.06-1.59-.06-2.46h0c-.19.77-.44,1.62-.67,2.32l-.73,2.34h-1.06l-.64-2.32c-.19-.7-.4-1.56-.54-2.34h0c0,.81-.06,1.74-.11,2.48l-.1,2.28h-1.26l.39-6h1.8l.59,2c.19.69.37,1.44.51,2.14h0c.17-.69.38-1.49.57-2.15l.64-2h1.77l.33,6h-1.32Z"/><path class="c" d="M444,300.61l-.08-.44h0a1.57,1.57,0,0,1-1.25.54,1.33,1.33,0,0,1-1.4-1.34c0-1.13,1-1.67,2.55-1.66v-.06c0-.23-.12-.56-.79-.56a2.39,2.39,0,0,0-1.2.33l-.25-.88a3.71,3.71,0,0,1,1.69-.38,1.69,1.69,0,0,1,1.91,1.88v1.51a7.39,7.39,0,0,0,.06,1.06Zm-.16-2.06c-.72,0-1.27.17-1.27.69a.49.49,0,0,0,.54.52.75.75,0,0,0,.7-.5.85.85,0,0,0,0-.23Z"/><path class="c" d="M447.65,295v1.25h1v1h-1v1.57c0,.53.12.77.53.77a1.9,1.9,0,0,0,.4,0v1a2.68,2.68,0,0,1-.88.12,1.41,1.41,0,0,1-1-.37,1.81,1.81,0,0,1-.38-1.29v-1.78h-.57v-1h.57v-.94Z"/><path class="c" d="M450.4,298.87c0,.56.59.82,1.22.82a4.06,4.06,0,0,0,1.21-.17l.17.91a4.2,4.2,0,0,1-1.57.27,2.09,2.09,0,0,1-2.32-2.22,2.17,2.17,0,0,1,2.19-2.32,1.93,1.93,0,0,1,1.94,2.17,3.21,3.21,0,0,1,0,.54Zm1.59-.93a.78.78,0,0,0-.77-.88.88.88,0,0,0-.83.88Z"/><path class="c" d="M454.05,297.69c0-.64,0-1.06,0-1.43h1.16l.05.8h0a1.28,1.28,0,0,1,1.18-.9,1.23,1.23,0,0,1,.28,0v1.27a1.79,1.79,0,0,0-.36,0,.87.87,0,0,0-.93.68,1.45,1.45,0,0,0,0,.3v2.21h-1.35Z"/><path class="c" d="M458.83,295.05a.69.69,0,0,1-.73.68.69.69,0,1,1,0-1.37A.69.69,0,0,1,458.83,295.05Zm-1.4,5.56v-4.35h1.35v4.35Z"/><path class="c" d="M462.34,300.61l-.08-.44h0a1.55,1.55,0,0,1-1.24.54,1.34,1.34,0,0,1-1.41-1.34c0-1.13,1-1.67,2.56-1.66v-.06c0-.23-.13-.56-.8-.56a2.45,2.45,0,0,0-1.2.33l-.25-.88a3.74,3.74,0,0,1,1.69-.38A1.7,1.7,0,0,1,463.5,298v1.51a7.39,7.39,0,0,0,.06,1.06Zm-.16-2.06c-.71,0-1.26.17-1.26.69a.49.49,0,0,0,.53.52.74.74,0,0,0,.7-.5.85.85,0,0,0,0-.23Z"/><path class="c" d="M464.56,294.29h1.36v6.32h-1.36Z"/><path class="c" d="M467,299.43a2.64,2.64,0,0,0,1.16.33c.41,0,.58-.15.58-.37s-.13-.33-.64-.5c-.9-.3-1.24-.79-1.23-1.3,0-.81.69-1.43,1.77-1.43a2.93,2.93,0,0,1,1.22.25l-.24.93a2.22,2.22,0,0,0-.94-.24c-.33,0-.52.13-.52.35s.17.31.71.5c.82.28,1.17.7,1.18,1.34,0,.81-.64,1.41-1.89,1.41a3.2,3.2,0,0,1-1.4-.3Z"/><path class="c" d="M435.45,101.48l-1.43-6h1.45l.46,2.47c.13.71.25,1.49.35,2.09h0c.1-.65.24-1.37.39-2.11l.51-2.45h1.44l.48,2.52c.13.71.23,1.35.32,2h0c.09-.66.22-1.37.35-2.08l.49-2.45h1.37l-1.54,6h-1.47l-.51-2.58c-.11-.6-.21-1.16-.28-1.85h0c-.11.68-.21,1.25-.35,1.85l-.57,2.58Z"/><path class="c" d="M443.49,95.92a.68.68,0,0,1-.73.68.68.68,0,1,1,0-1.36A.68.68,0,0,1,443.49,95.92Zm-1.4,5.56V97.13h1.35v4.35Z"/><path class="c" d="M444.53,98.52c0-.54,0-1,0-1.39h1.17l.07.6h0a1.6,1.6,0,0,1,1.35-.7c.89,0,1.55.59,1.55,1.87v2.58H447.3V99.07c0-.56-.19-.94-.68-.94a.72.72,0,0,0-.69.51,1,1,0,0,0-.05.33v2.51h-1.35Z"/><path class="c" d="M454,95.17v5c0,.49,0,1,0,1.3h-1.2l-.06-.64h0a1.52,1.52,0,0,1-1.36.74,2,2,0,0,1-1.86-2.23A2.06,2.06,0,0,1,451.44,97a1.31,1.31,0,0,1,1.14.49h0V95.17ZM452.6,99a1.94,1.94,0,0,0,0-.24.81.81,0,0,0-.79-.66c-.61,0-.93.55-.93,1.23s.36,1.2.92,1.2a.79.79,0,0,0,.79-.65,1.42,1.42,0,0,0,0-.31Z"/><path class="c" d="M459.33,99.26a2.18,2.18,0,0,1-2.29,2.32,2.13,2.13,0,0,1-2.25-2.24A2.17,2.17,0,0,1,457.11,97,2.12,2.12,0,0,1,459.33,99.26Zm-3.14,0c0,.75.31,1.31.88,1.31s.87-.52.87-1.31-.25-1.31-.87-1.31S456.19,98.66,456.19,99.3Z"/><path class="c" d="M461,97.13l.35,1.78c.09.45.18.94.25,1.43h0c.09-.49.21-1,.32-1.42l.46-1.79h1.07l.43,1.74c.12.49.23,1,.32,1.47h0c.06-.49.15-1,.25-1.48l.37-1.73h1.33l-1.33,4.35H463.6l-.41-1.53c-.1-.42-.18-.82-.27-1.35h0a11.32,11.32,0,0,1-.28,1.35l-.44,1.53h-1.27l-1.27-4.35Z"/><path class="c" d="M466.69,100.3a2.64,2.64,0,0,0,1.16.33c.41,0,.58-.14.58-.37s-.13-.33-.64-.49c-.9-.31-1.24-.8-1.23-1.31,0-.81.69-1.43,1.76-1.43a3,3,0,0,1,1.23.25l-.24.94a2.07,2.07,0,0,0-.94-.25c-.33,0-.52.13-.52.35s.17.32.71.5c.82.29,1.17.71,1.18,1.35,0,.81-.64,1.4-1.89,1.4a3,3,0,0,1-1.4-.3Z"/><path class="f" d="M352.11,47c0,39-132.69-27.11-132.94,2.38"/><path class="c" d="M350.7,47a1.41,1.41,0,1,1,1.41,1.41A1.41,1.41,0,0,1,350.7,47Z"/><polygon class="c" points="218.09 48.63 219.14 52.71 220.27 48.65 218.09 48.63"/></svg>